<svg xmlns="http://www.w3.org/2000/svg" xmlns:xlink="http://www.w3.org/1999/xlink" width="500" zoomAndPan="magnify" viewBox="0 0 375 374.999991" height="500" preserveAspectRatio="xMidYMid meet" version="1.0"><defs><g/><clipPath id="cf8aeaf2bc"><path d="M 111.929688 22.390625 L 314.429688 22.390625 L 314.429688 311.890625 L 111.929688 311.890625 Z M 111.929688 22.390625 " clip-rule="nonzero"/></clipPath><clipPath id="946b6c8b91"><path d="M 111.929688 41 L 300 41 L 300 311.890625 L 111.929688 311.890625 Z M 111.929688 41 " clip-rule="nonzero"/></clipPath><clipPath id="21a2199f43"><path d="M 100 218 L 282 218 L 282 343 L 100 343 Z M 100 218 " clip-rule="nonzero"/></clipPath><clipPath id="e2705553d8"><path d="M 133.332031 182.660156 L 290.375 309.3125 L 237.644531 374.699219 L 80.601562 248.046875 Z M 133.332031 182.660156 " clip-rule="nonzero"/></clipPath><clipPath id="740e61a21c"><path d="M 133.332031 182.660156 L 290.375 309.3125 L 237.644531 374.699219 L 80.601562 248.046875 Z M 133.332031 182.660156 " clip-rule="nonzero"/></clipPath><clipPath id="892af81165"><path d="M 148 242 L 186 242 L 186 276 L 148 276 Z M 148 242 " clip-rule="nonzero"/></clipPath><clipPath id="be75e68285"><path d="M 133.332031 182.660156 L 290.375 309.3125 L 237.644531 374.699219 L 80.601562 248.046875 Z M 133.332031 182.660156 " clip-rule="nonzero"/></clipPath><clipPath id="d56198feff"><path d="M 133.332031 182.660156 L 290.375 309.3125 L 237.644531 374.699219 L 80.601562 248.046875 Z M 133.332031 182.660156 " clip-rule="nonzero"/></clipPath><clipPath id="ff338758ea"><path d="M 111 241 L 204 241 L 204 315 L 111 315 Z M 111 241 " clip-rule="nonzero"/></clipPath><clipPath id="eb1d2dfe6d"><path d="M 133.332031 182.660156 L 290.375 309.3125 L 237.644531 374.699219 L 80.601562 248.046875 Z M 133.332031 182.660156 " clip-rule="nonzero"/></clipPath><clipPath id="a609e779aa"><path d="M 133.332031 182.660156 L 290.375 309.3125 L 237.644531 374.699219 L 80.601562 248.046875 Z M 133.332031 182.660156 " clip-rule="nonzero"/></clipPath><clipPath id="a5b7a0f869"><path d="M 52 27 L 131 27 L 131 224 L 52 224 Z M 52 27 " clip-rule="nonzero"/></clipPath><clipPath id="a851f33b26"><path d="M 126.046875 23.855469 L 151.878906 217.136719 L 70.847656 227.964844 L 45.015625 34.683594 Z M 126.046875 23.855469 " clip-rule="nonzero"/></clipPath><clipPath id="408ddae245"><path d="M 126.046875 23.855469 L 151.878906 217.136719 L 70.847656 227.964844 L 45.015625 34.683594 Z M 126.046875 23.855469 " clip-rule="nonzero"/></clipPath><clipPath id="910208eaec"><path d="M 126.050781 23.898438 L 151.882812 217.15625 L 70.804688 227.992188 L 44.976562 34.734375 Z M 126.050781 23.898438 " clip-rule="nonzero"/></clipPath><clipPath id="94ee055231"><path d="M 126.050781 23.898438 L 151.871094 217.089844 L 70.84375 227.921875 L 45.023438 34.726562 Z M 126.050781 23.898438 " clip-rule="nonzero"/></clipPath><clipPath id="1139141899"><path d="M 70 168 L 102 168 L 102 204 L 70 204 Z M 70 168 " clip-rule="nonzero"/></clipPath><clipPath id="38ec391ddf"><path d="M 126.046875 23.855469 L 151.878906 217.136719 L 70.847656 227.964844 L 45.015625 34.683594 Z M 126.046875 23.855469 " clip-rule="nonzero"/></clipPath><clipPath id="b9bccd37b7"><path d="M 126.046875 23.855469 L 151.878906 217.136719 L 70.847656 227.964844 L 45.015625 34.683594 Z M 126.046875 23.855469 " clip-rule="nonzero"/></clipPath><clipPath id="b55a08d1ad"><path d="M 92 135 L 123 135 L 123 170 L 92 170 Z M 92 135 " clip-rule="nonzero"/></clipPath><clipPath id="ac9df3e262"><path d="M 126.046875 23.855469 L 151.878906 217.136719 L 70.847656 227.964844 L 45.015625 34.683594 Z M 126.046875 23.855469 " clip-rule="nonzero"/></clipPath><clipPath id="1356761263"><path d="M 126.046875 23.855469 L 151.878906 217.136719 L 70.847656 227.964844 L 45.015625 34.683594 Z M 126.046875 23.855469 " clip-rule="nonzero"/></clipPath></defs><rect x="-37.5" width="450" fill="#ffffff" y="-37.499999" height="449.999989" fill-opacity="1"/><rect x="-37.5" width="450" fill="#ffffff" y="-37.499999" height="449.999989" fill-opacity="1"/><rect x="-37.5" width="450" fill="#96a18c" y="-37.499999" height="449.999989" fill-opacity="1"/><g clip-path="url(#cf8aeaf2bc)"><path fill="#96a18c" d="M 314.492188 115.710938 L 314.492188 404.75 L 299.257812 404.75 L 296.476562 401.878906 L 296.476562 124.914062 C 296.476562 124.113281 296.09375 123.34375 295.410156 122.871094 L 183.765625 45.019531 C 182.316406 44.011719 180.421875 44.011719 178.972656 45.019531 L 67.292969 122.871094 C 66.644531 123.34375 66.230469 124.082031 66.230469 124.914062 L 66.230469 401.878906 L 63.449219 404.75 L 48.242188 404.75 L 48.242188 115.710938 C 48.242188 114.910156 48.628906 114.140625 49.308594 113.667969 L 178.972656 23.535156 C 180.390625 22.527344 182.316406 22.527344 183.734375 23.535156 L 313.398438 113.667969 C 314.109375 114.140625 314.492188 114.882812 314.492188 115.710938 Z M 314.492188 115.710938 " fill-opacity="1" fill-rule="nonzero"/></g><g clip-path="url(#946b6c8b91)"><path fill="#ffffff" d="M 299.257812 123.667969 L 299.257812 404.75 L 296.476562 401.878906 L 296.476562 124.914062 C 296.476562 124.113281 296.09375 123.34375 295.410156 122.871094 L 183.765625 45.019531 C 182.316406 44.011719 180.421875 44.011719 178.972656 45.019531 L 67.292969 122.871094 C 66.644531 123.34375 66.230469 124.082031 66.230469 124.914062 L 66.230469 401.878906 L 63.449219 404.75 L 63.449219 123.667969 C 63.449219 122.871094 63.832031 122.101562 64.515625 121.628906 L 178.972656 42.089844 C 180.390625 41.082031 182.316406 41.082031 183.734375 42.089844 L 298.191406 121.628906 C 298.871094 122.101562 299.257812 122.839844 299.257812 123.667969 Z M 299.257812 123.667969 " fill-opacity="1" fill-rule="nonzero"/></g><g clip-path="url(#21a2199f43)"><g clip-path="url(#e2705553d8)"><g clip-path="url(#740e61a21c)"><path fill="#ffffff" d="M 195.980469 315.125 C 199.472656 319.71875 203.234375 324.425781 207.867188 329.648438 C 209.195312 331.140625 210.503906 332.65625 211.789062 334.222656 C 213.074219 335.789062 214.335938 337.398438 215.558594 339.085938 C 216.09375 339.828125 216.527344 340.5 216.84375 341.074219 C 217.136719 341.621094 217.328125 342.078125 217.386719 342.425781 C 217.398438 342.480469 217.402344 342.527344 217.40625 342.566406 C 217.355469 342.574219 217.296875 342.570312 217.222656 342.566406 C 216.808594 342.5625 216.230469 342.425781 215.476562 342.144531 C 214.726562 341.867188 213.824219 341.460938 212.746094 340.910156 C 210.507812 339.765625 208.273438 338.273438 206.078125 336.527344 C 203.699219 334.636719 201.363281 332.453125 199.121094 330.089844 C 196.984375 327.832031 194.929688 325.410156 193.011719 322.949219 C 191.484375 320.976562 190.039062 318.980469 188.691406 317 C 190.859375 316.894531 192.882812 316.445312 194.722656 315.699219 C 195.15625 315.527344 195.574219 315.335938 195.980469 315.125 Z M 203.417969 307.996094 C 203.964844 308.375 204.5 308.757812 205.015625 309.128906 C 205.839844 309.722656 206.613281 310.355469 207.292969 310.992188 C 207.929688 311.597656 208.472656 312.210938 208.871094 312.785156 C 209.175781 313.222656 209.390625 313.628906 209.496094 313.976562 C 209.574219 314.242188 209.574219 314.460938 209.484375 314.613281 L 209.480469 314.628906 C 209.351562 314.835938 209.070312 315.003906 208.640625 315.105469 C 208.191406 315.207031 207.601562 315.234375 206.863281 315.160156 C 205.910156 315.058594 204.765625 314.78125 203.414062 314.277344 C 202.320312 313.859375 201.09375 313.300781 199.75 312.554688 C 201.167969 311.289062 202.378906 309.789062 203.363281 308.097656 Z M 205.507812 292.535156 C 208.519531 293.257812 211.316406 293.941406 213.355469 294.527344 C 213.625 294.597656 213.855469 294.667969 214.035156 294.71875 C 214.246094 294.789062 214.472656 294.855469 214.714844 294.929688 L 214.792969 294.957031 L 214.878906 294.945312 C 216.847656 294.585938 218.878906 294.132812 220.929688 293.683594 C 224.246094 292.960938 227.605469 292.226562 230.898438 291.792969 L 230.960938 291.78125 C 239.402344 290.679688 247.933594 289.5625 256.136719 288.691406 C 260.535156 288.222656 263.382812 288.34375 264.765625 288.867188 C 265.265625 289.058594 265.53125 289.285156 265.589844 289.53125 C 265.636719 289.789062 265.476562 290.113281 265.101562 290.5 C 264.042969 291.597656 261.488281 292.957031 257.515625 294.347656 C 256.34375 294.753906 255.128906 295.132812 253.886719 295.484375 C 252.601562 295.835938 251.285156 296.160156 249.9375 296.457031 L 246.988281 297.089844 L 249.835938 297.195312 C 251.988281 297.269531 256.550781 297.953125 260.695312 298.910156 C 263.832031 299.632812 266.710938 300.507812 268.078125 301.394531 C 268.476562 301.652344 268.742188 301.890625 268.886719 302.109375 C 268.996094 302.269531 269.023438 302.402344 268.996094 302.527344 C 268.964844 302.65625 268.863281 302.796875 268.695312 302.925781 C 268.40625 303.15625 267.949219 303.363281 267.363281 303.53125 C 266.664062 303.742188 265.773438 303.875 264.675781 303.910156 C 263.675781 303.945312 262.511719 303.882812 261.167969 303.710938 C 260.925781 303.679688 260.703125 303.648438 260.511719 303.621094 C 260.316406 303.59375 260.097656 303.5625 259.863281 303.519531 C 258.011719 303.203125 256.164062 302.765625 254.359375 302.230469 C 252.339844 301.644531 250.359375 300.933594 248.484375 300.179688 C 247.53125 299.792969 246.621094 299.398438 245.753906 299.007812 C 244.796875 298.574219 243.890625 298.144531 243.035156 297.71875 L 242.941406 297.671875 L 242.84375 297.683594 C 240.570312 297.988281 238.292969 298.207031 236.074219 298.355469 C 233.710938 298.511719 231.40625 298.582031 229.230469 298.589844 C 228.140625 298.585938 227.023438 298.574219 225.878906 298.535156 C 224.753906 298.503906 223.617188 298.457031 222.496094 298.390625 L 219.273438 298.195312 L 222.390625 299.035156 C 228.351562 300.65625 234.503906 302.246094 240.699219 303.855469 C 240.699219 303.855469 240.71875 303.863281 240.722656 303.859375 C 253.339844 307.128906 266.136719 310.441406 277.730469 314.039062 C 278.660156 314.328125 279.4375 314.617188 280.054688 314.898438 C 280.644531 315.171875 281.085938 315.4375 281.355469 315.691406 C 281.40625 315.730469 281.445312 315.773438 281.476562 315.804688 C 281.433594 315.84375 281.382812 315.886719 281.3125 315.941406 C 280.960938 316.183594 280.390625 316.4375 279.582031 316.671875 C 278.796875 316.90625 277.789062 317.136719 276.546875 317.347656 C 273.960938 317.792969 271.160156 317.945312 268.242188 317.867188 C 265.070312 317.777344 261.757812 317.40625 258.421875 316.832031 C 257.867188 316.742188 257.335938 316.644531 256.835938 316.550781 C 256.28125 316.441406 255.742188 316.335938 255.214844 316.230469 L 252.980469 315.761719 L 254.992188 316.847656 L 256.121094 317.445312 C 258.53125 318.730469 263.175781 321.488281 267.046875 324.125 C 269.753906 325.964844 272.070312 327.742188 272.960938 328.886719 C 273.253906 329.273438 273.425781 329.582031 273.488281 329.835938 C 273.535156 330.015625 273.519531 330.160156 273.449219 330.257812 C 273.382812 330.378906 273.234375 330.46875 273.035156 330.535156 C 272.675781 330.660156 272.175781 330.703125 271.574219 330.664062 C 270.84375 330.625 269.960938 330.460938 268.910156 330.125 C 267.953125 329.820312 266.878906 329.371094 265.671875 328.761719 C 265.472656 328.667969 265.28125 328.566406 265.085938 328.464844 C 264.898438 328.359375 264.699219 328.253906 264.496094 328.144531 C 262.855469 327.230469 261.261719 326.195312 259.738281 325.09375 C 258.023438 323.855469 256.394531 322.53125 254.886719 321.199219 C 253.675781 320.128906 252.53125 319.042969 251.480469 317.996094 C 250.28125 316.789062 249.207031 315.640625 248.28125 314.582031 L 248.210938 314.511719 L 248.125 314.484375 C 246.042969 313.902344 244.007812 313.265625 242.039062 312.59375 C 239.960938 311.882812 237.964844 311.140625 236.085938 310.382812 C 234.941406 309.925781 233.777344 309.433594 232.597656 308.921875 C 231.417969 308.402344 230.242188 307.863281 229.082031 307.308594 C 227.917969 306.753906 226.761719 306.1875 225.632812 305.605469 C 224.515625 305.035156 223.414062 304.449219 222.339844 303.847656 C 221.953125 303.636719 220.753906 303.015625 219.070312 302.140625 L 216.605469 300.867188 L 212.519531 300.175781 L 214.960938 301.765625 C 217.285156 303.285156 219.734375 304.886719 221.902344 306.527344 C 224.054688 308.144531 226.15625 309.71875 228.027344 311.109375 C 229.773438 312.398438 231.28125 313.496094 232.378906 314.28125 C 233.175781 314.851562 233.933594 315.460938 234.582031 316.066406 C 235.195312 316.644531 235.714844 317.230469 236.109375 317.785156 C 236.410156 318.207031 236.621094 318.597656 236.71875 318.921875 C 236.792969 319.175781 236.800781 319.382812 236.722656 319.527344 L 236.703125 319.550781 C 236.582031 319.746094 236.324219 319.910156 235.90625 320.003906 C 235.484375 320.109375 234.914062 320.132812 234.199219 320.0625 C 233.28125 319.976562 232.171875 319.714844 230.875 319.230469 C 229.695312 318.792969 228.363281 318.175781 226.875 317.34375 C 226.652344 317.214844 226.414062 317.078125 226.160156 316.929688 C 225.9375 316.792969 225.699219 316.65625 225.441406 316.496094 C 223.433594 315.257812 221.492188 313.878906 219.644531 312.40625 C 217.566406 310.765625 215.601562 309.019531 213.777344 307.253906 C 212.421875 305.941406 211.140625 304.625 209.964844 303.347656 C 208.640625 301.90625 207.429688 300.507812 206.359375 299.199219 L 206.285156 299.109375 L 206.160156 299.082031 C 206.308594 296.851562 206.074219 294.65625 205.507812 292.535156 Z M 202.8125 286.371094 C 206.726562 285.535156 211.238281 284.644531 215.519531 283.894531 C 222.425781 282.6875 228.71875 281.84375 230.851562 282.167969 C 231.375 282.253906 231.820312 282.375 232.140625 282.53125 C 232.390625 282.667969 232.550781 282.816406 232.601562 282.984375 L 232.609375 283 C 232.671875 283.234375 232.601562 283.550781 232.382812 283.941406 C 232.148438 284.328125 231.769531 284.78125 231.203125 285.265625 C 230.476562 285.894531 229.496094 286.539062 228.203125 287.164062 C 227.035156 287.738281 225.625 288.292969 223.933594 288.808594 C 223.664062 288.894531 223.390625 288.972656 223.105469 289.054688 C 222.84375 289.128906 222.566406 289.207031 222.277344 289.28125 C 219.917969 289.902344 217.492188 290.363281 215.066406 290.699219 C 212.355469 291.070312 209.636719 291.292969 207.015625 291.394531 C 206.472656 291.417969 205.953125 291.4375 205.449219 291.449219 L 205.191406 291.449219 C 204.835938 290.34375 204.390625 289.269531 203.867188 288.226562 C 203.539062 287.597656 203.1875 286.976562 202.8125 286.371094 Z M 189.117188 281.664062 C 187.578125 281.765625 186.046875 281.820312 184.550781 281.835938 C 182.992188 281.859375 181.464844 281.84375 179.996094 281.800781 C 179.054688 281.773438 178.140625 281.726562 177.238281 281.675781 C 177.773438 281.441406 178.378906 281.226562 179.078125 281.050781 C 180.085938 280.792969 181.191406 280.601562 182.367188 280.53125 C 183.515625 280.472656 184.757812 280.535156 186.082031 280.789062 C 187.125 281 188.144531 281.292969 189.117188 281.664062 Z M 185.789062 275.355469 C 188.425781 274.90625 191.144531 274.46875 193.785156 274.078125 C 201.152344 272.984375 207.851562 272.269531 210.109375 272.675781 C 210.671875 272.773438 211.140625 272.910156 211.472656 273.097656 C 211.738281 273.25 211.914062 273.417969 211.964844 273.605469 L 211.972656 273.628906 C 212.03125 273.875 211.945312 274.21875 211.703125 274.625 C 211.441406 275.039062 211.015625 275.507812 210.414062 276.007812 C 209.628906 276.652344 208.558594 277.304688 207.164062 277.945312 C 205.914062 278.515625 204.394531 279.070312 202.582031 279.566406 C 202.308594 279.644531 202.011719 279.726562 201.707031 279.800781 C 201.394531 279.878906 201.09375 279.953125 200.8125 280.019531 C 199.808594 280.25 198.796875 280.464844 197.769531 280.644531 C 196.773438 279.820312 195.710938 279.074219 194.582031 278.410156 C 192.3125 277.082031 189.785156 276.09375 187.101562 275.574219 C 186.660156 275.484375 186.222656 275.410156 185.789062 275.355469 Z M 114.390625 241.898438 C 109.183594 235.5625 104.109375 229.148438 100.070312 223.910156 L 107.335938 218.6875 C 112.257812 225.761719 117.585938 232.902344 122.703125 239.339844 C 122.132812 239.367188 121.574219 239.414062 121.027344 239.488281 C 118.539062 239.808594 116.285156 240.605469 114.390625 241.898438 Z M 137.683594 269.878906 C 137.515625 268.878906 137.382812 267.941406 137.273438 267.074219 L 137.261719 266.945312 L 137.15625 266.859375 C 132.574219 263.074219 125.253906 254.914062 117.816406 246.027344 C 118.929688 245.375 120.257812 244.957031 121.742188 244.765625 C 123.417969 244.546875 125.28125 244.617188 127.265625 244.964844 C 132.667969 251.476562 137.597656 256.886719 141.257812 260.195312 C 141.410156 260.335938 141.570312 260.476562 141.722656 260.617188 C 141.664062 261.839844 141.464844 263.019531 141.136719 264.144531 C 140.558594 266.109375 139.585938 267.882812 138.253906 269.308594 C 138.066406 269.503906 137.878906 269.691406 137.683594 269.878906 Z M 142.464844 272.613281 C 142.953125 273.847656 143.476562 275.144531 144.007812 276.460938 C 144.765625 278.332031 145.550781 280.246094 146.3125 282.097656 C 147.261719 284.410156 148.183594 286.621094 148.988281 288.535156 C 149.753906 290.335938 150.421875 291.890625 150.929688 293.039062 C 151.292969 293.84375 151.597656 294.664062 151.824219 295.453125 C 152.035156 296.1875 152.179688 296.886719 152.226562 297.5 C 152.265625 297.960938 152.253906 298.363281 152.175781 298.667969 C 152.117188 298.882812 152.03125 299.050781 151.910156 299.117188 L 151.882812 299.132812 C 151.699219 299.222656 151.429688 299.226562 151.074219 299.109375 C 150.691406 298.996094 150.234375 298.753906 149.710938 298.367188 C 149.035156 297.878906 148.285156 297.15625 147.492188 296.175781 C 146.765625 295.289062 146.011719 294.1875 145.234375 292.847656 C 145.101562 292.625 144.976562 292.402344 144.863281 292.191406 C 144.746094 291.984375 144.628906 291.757812 144.5 291.515625 C 143.496094 289.621094 142.621094 287.636719 141.847656 285.632812 C 140.984375 283.382812 140.257812 281.101562 139.640625 278.875 C 139.339844 277.792969 139.078125 276.722656 138.828125 275.679688 C 140.070312 274.910156 141.1875 273.992188 142.167969 272.949219 C 142.265625 272.835938 142.363281 272.722656 142.464844 272.613281 Z M 167.300781 286.230469 C 166.523438 285.839844 165.75 285.445312 164.984375 285.046875 C 161.914062 283.441406 158.929688 281.753906 156.039062 280.007812 L 155.039062 279.402344 L 155.570312 280.441406 L 155.824219 280.941406 L 156.082031 281.410156 C 157.046875 283.210938 158.175781 285.292969 159.375 287.464844 C 160.625 289.746094 161.988281 292.183594 163.332031 294.585938 C 164.382812 296.453125 165.414062 298.28125 166.371094 299.957031 C 166.664062 301.300781 167.082031 302.613281 167.605469 303.875 C 168.566406 306.195312 169.921875 308.347656 171.648438 310.203125 L 171.664062 310.300781 C 171.761719 310.800781 171.800781 311.230469 171.753906 311.5625 C 171.722656 311.820312 171.652344 312.007812 171.519531 312.101562 L 171.5 312.113281 C 171.316406 312.242188 171.019531 312.28125 170.609375 312.207031 C 170.179688 312.128906 169.65625 311.933594 169.046875 311.589844 C 168.257812 311.144531 167.363281 310.46875 166.386719 309.523438 C 165.496094 308.667969 164.542969 307.589844 163.53125 306.253906 C 163.386719 306.054688 163.226562 305.84375 163.054688 305.605469 C 162.898438 305.386719 162.742188 305.160156 162.582031 304.929688 C 161.269531 303.03125 160.066406 301.023438 158.980469 298.96875 C 157.761719 296.671875 156.6875 294.320312 155.738281 292.03125 C 154.652344 289.375 153.742188 286.796875 153.007812 284.433594 C 152.097656 281.515625 151.453125 278.949219 151.058594 277.003906 L 151.03125 276.871094 L 150.910156 276.792969 C 149.453125 275.847656 148.027344 274.886719 146.640625 273.925781 C 145.511719 273.144531 144.402344 272.359375 143.316406 271.566406 C 144.628906 269.828125 145.609375 267.824219 146.242188 265.667969 C 146.332031 265.347656 146.414062 265.03125 146.496094 264.703125 C 146.820312 264.972656 147.152344 265.242188 147.484375 265.5 C 150.453125 267.875 153.703125 270.167969 157.203125 272.386719 C 160.257812 274.3125 163.503906 276.164062 166.921875 278.003906 C 169.621094 279.46875 169.65625 278.558594 173.316406 277.746094 C 172.800781 278.082031 172.328125 278.4375 171.886719 278.832031 C 170.4375 280.113281 169.429688 281.636719 168.511719 283.445312 C 168.046875 284.347656 167.644531 285.285156 167.300781 286.230469 Z M 179.789062 309.808594 C 179.625 308.839844 179.476562 307.898438 179.351562 306.992188 C 178.917969 303.828125 178.699219 301.085938 178.632812 299.078125 L 178.628906 298.855469 L 178.054688 297.667969 L 175.839844 293.089844 C 175.300781 291.976562 174.726562 290.777344 174.136719 289.550781 L 174.082031 289.441406 L 173.972656 289.394531 C 173.355469 289.125 172.75 288.84375 172.140625 288.5625 C 172.441406 287.644531 172.816406 286.75 173.261719 285.878906 C 173.898438 284.621094 174.5625 283.59375 175.4375 282.816406 C 175.570312 282.695312 175.703125 282.585938 175.84375 282.480469 L 176.085938 282.589844 C 180.960938 284.898438 186.378906 287.46875 191.589844 289.023438 L 191.636719 289.035156 L 191.6875 289.039062 C 191.855469 289.035156 192.046875 289.023438 192.25 288.988281 C 192.449219 288.957031 192.667969 288.90625 192.902344 288.820312 C 193.742188 288.527344 195.253906 288.121094 197.203125 287.648438 C 197.941406 288.582031 198.578125 289.578125 199.109375 290.628906 C 200.28125 292.933594 200.917969 295.464844 200.871094 298.050781 C 200.167969 297.90625 199.457031 297.75 198.738281 297.601562 C 195.945312 297.003906 193.179688 296.296875 190.445312 295.488281 C 187.59375 294.648438 184.78125 293.707031 181.996094 292.667969 L 179.863281 291.878906 L 181.679688 293.25 C 185.296875 295.976562 189.878906 298.988281 194.4375 301.988281 C 195.96875 302.984375 197.5 303.988281 198.988281 304.988281 C 198.917969 305.117188 198.84375 305.246094 198.765625 305.375 C 197.777344 307.066406 196.507812 308.480469 194.984375 309.542969 C 194.527344 309.222656 194.082031 308.886719 193.628906 308.550781 C 192.179688 307.472656 190.765625 306.324219 189.421875 305.148438 L 187.191406 303.210938 L 189.308594 306.109375 C 190.453125 307.679688 191.582031 309.222656 192.726562 310.773438 L 192.703125 310.78125 C 190.28125 311.757812 187.351562 312 183.980469 311.28125 C 182.449219 310.953125 181.058594 310.460938 179.808594 309.816406 Z M 187.351562 317.015625 L 187.382812 317.09375 L 188.097656 319.078125 C 189.039062 321.644531 189.945312 324.113281 190.738281 326.25 C 191.492188 328.253906 192.15625 329.988281 192.667969 331.273438 C 193.019531 332.179688 193.320312 333.101562 193.53125 333.964844 C 193.734375 334.785156 193.859375 335.5625 193.882812 336.238281 C 193.90625 336.75 193.871094 337.195312 193.773438 337.519531 C 193.695312 337.777344 193.585938 337.953125 193.4375 338.027344 L 193.417969 338.039062 C 193.210938 338.136719 192.902344 338.121094 192.5 337.984375 C 192.082031 337.828125 191.585938 337.546875 191.03125 337.101562 C 190.308594 336.527344 189.527344 335.703125 188.691406 334.589844 C 187.941406 333.585938 187.15625 332.339844 186.367188 330.835938 C 186.242188 330.589844 186.117188 330.347656 185.992188 330.105469 C 185.871094 329.859375 185.746094 329.601562 185.625 329.34375 C 184.613281 327.21875 183.742188 325.003906 182.988281 322.765625 C 182.226562 320.519531 181.59375 318.246094 181.058594 316.023438 C 181.648438 316.199219 182.253906 316.355469 182.875 316.484375 C 184.429688 316.824219 185.921875 316.992188 187.351562 317.015625 " fill-opacity="1" fill-rule="evenodd"/></g></g></g><g clip-path="url(#892af81165)"><g clip-path="url(#be75e68285)"><g clip-path="url(#d56198feff)"><path fill="#ffffff" d="M 183.597656 251.675781 C 186.625 257.324219 186.152344 264.039062 180.625 269.847656 C 176.71875 273.949219 171.847656 275.660156 167.039062 275.46875 C 164.089844 273.867188 161.273438 272.21875 158.613281 270.527344 C 155.363281 268.472656 152.335938 266.351562 149.542969 264.164062 C 148.273438 261.75 147.8125 259.398438 148.871094 255.949219 C 149.546875 253.746094 150.691406 251.289062 152.75 249.058594 C 161.246094 239.808594 177.289062 239.875 183.597656 251.675781 " fill-opacity="1" fill-rule="evenodd"/></g></g></g><g clip-path="url(#ff338758ea)"><g clip-path="url(#eb1d2dfe6d)"><g clip-path="url(#a609e779aa)"><path fill="#ffffff" d="M 123.914062 274.585938 C 119.34375 273.238281 114.6875 270.304688 112.871094 264.128906 C 112.15625 261.699219 111.675781 259.484375 111.414062 257.480469 C 109.625 244.15625 119.011719 239.816406 130.425781 242.953125 C 135.820312 244.4375 141.890625 248.472656 143.574219 254.125 C 147.148438 266.132812 138.980469 279.046875 123.914062 274.585938 Z M 201.0625 306.734375 C 197.730469 312.433594 191.558594 315.632812 183.429688 313.886719 C 169.785156 310.957031 165.125 295.976562 170.890625 284.65625 C 172.445312 281.601562 174.226562 279.539062 178.402344 278.476562 C 180.714844 277.886719 183.503906 277.578125 186.589844 278.183594 C 199.367188 280.6875 208.035156 294.839844 201.0625 306.734375 " fill-opacity="1" fill-rule="evenodd"/></g></g></g><g fill="#ffffff" fill-opacity="1"><g transform="translate(126.967067, 189.232267)"><g><path d="M 14.691406 -20.023438 C 14.546875 -23.328125 12.480469 -26.121094 8.777344 -26.121094 C 8.453125 -26.121094 7.871094 -26.121094 7.546875 -26.082031 C 7.21875 -26.082031 6.964844 -26.046875 6.820312 -26.046875 L 5.222656 -26.046875 C 5.007812 -26.046875 4.789062 -26.082031 4.535156 -26.082031 C 3.15625 -26.082031 1.777344 -26.082031 1.777344 -25.140625 C 2.175781 -23.398438 2.214844 -21.585938 2.214844 -18.574219 L 2.214844 -17.050781 C 2.214844 -15.199219 2.105469 -13.421875 2.03125 -11.898438 C 1.960938 -10.628906 1.921875 -9.46875 1.921875 -8.453125 C 1.921875 -6.347656 1.996094 -4.605469 2.066406 -3.445312 C 2.105469 -2.792969 2.140625 -2.285156 2.140625 -1.886719 C 2.140625 -1.667969 2.140625 -1.523438 2.105469 -1.378906 L 2.140625 -1.414062 C 2.066406 -1.195312 2.066406 -1.160156 2.066406 -1.125 C 2.066406 -0.289062 2.46875 0.109375 3.445312 0.109375 L 3.882812 0.109375 C 4.933594 0.0742188 4.933594 0.0742188 7.617188 0.0742188 C 10.957031 0.0742188 13.132812 -1.488281 14.148438 -3.410156 C 14.4375 -3.953125 14.65625 -4.714844 14.65625 -5.585938 L 14.65625 -9.757812 C 14.65625 -10.410156 14.691406 -11.171875 14.730469 -11.933594 C 14.765625 -12.734375 14.800781 -13.566406 14.800781 -14.367188 L 14.800781 -15.960938 C 14.800781 -17.015625 14.765625 -18.355469 14.691406 -20.023438 Z M 12.007812 -14.328125 C 11.972656 -13.566406 11.898438 -12.804688 11.898438 -12.117188 L 11.898438 -11.71875 C 11.898438 -11.464844 11.863281 -11.210938 11.863281 -11.027344 L 11.863281 -6.566406 C 11.863281 -4.898438 10.8125 -3.15625 8.925781 -2.792969 L 8.960938 -2.792969 C 8.054688 -2.722656 7.148438 -2.648438 6.675781 -2.648438 C 5.621094 -2.722656 5.261719 -2.722656 5.078125 -2.722656 L 4.933594 -8.996094 C 4.898438 -9.214844 4.898438 -9.46875 4.898438 -9.757812 C 4.898438 -10.882812 4.933594 -11.863281 4.933594 -12.878906 C 4.96875 -14.039062 5.007812 -15.273438 5.007812 -16.867188 L 5.007812 -18.648438 C 5.007812 -20.316406 4.96875 -21.765625 4.898438 -23.253906 C 5.878906 -23.363281 6.785156 -23.398438 7.507812 -23.398438 C 7.546875 -23.398438 7.617188 -23.363281 7.691406 -23.363281 L 8.34375 -23.363281 C 9.285156 -23.253906 10.15625 -22.964844 10.957031 -22.417969 C 11.644531 -21.910156 12.117188 -20.351562 12.117188 -16.652344 C 12.117188 -15.925781 12.082031 -15.089844 12.007812 -14.328125 Z M 12.007812 -14.328125 "/></g></g></g><g fill="#ffffff" fill-opacity="1"><g transform="translate(149.092929, 189.232267)"><g><path d="M 16.6875 -25.574219 C 14.835938 -26.230469 13.277344 -26.628906 11.789062 -26.628906 C 3.953125 -26.628906 1.449219 -21.113281 0.941406 -13.277344 C 0.941406 -7.546875 2.867188 0.652344 11.789062 0.652344 C 12.769531 0.652344 13.566406 0.582031 14.328125 0.398438 L 16.433594 -0.507812 L 17.886719 -1.34375 L 18.609375 -1.960938 C 19.082031 -2.320312 19.515625 -2.792969 19.878906 -3.300781 C 21.550781 -5.550781 22.382812 -8.308594 22.382812 -10.992188 C 22.3125 -11.933594 22.3125 -12.878906 22.3125 -13.859375 C 22.3125 -15.238281 22.3125 -16.542969 22.128906 -17.738281 C 21.949219 -18.828125 21.441406 -20.171875 20.75 -21.949219 C 20.023438 -23.761719 18.320312 -24.957031 16.722656 -25.574219 Z M 15.089844 -23.21875 C 17.121094 -22.671875 18.101562 -20.933594 18.753906 -18.648438 L 18.753906 -18.683594 L 19.046875 -17.703125 L 19.335938 -15.851562 C 19.554688 -14.984375 19.625 -14.148438 19.625 -13.421875 C 19.625 -7.726562 18.285156 -5.839844 17.160156 -4.605469 L 16.652344 -4.207031 C 15.054688 -2.9375 14.476562 -2.394531 11.71875 -2.394531 C 7.910156 -2.394531 5.078125 -5.1875 4.425781 -8.089844 L 4.28125 -8.742188 C 4.027344 -10.011719 3.773438 -11.210938 3.773438 -12.152344 L 3.773438 -12.515625 C 3.882812 -13.277344 3.953125 -13.96875 4.027344 -14.730469 C 4.097656 -15.746094 4.171875 -16.761719 4.425781 -17.886719 C 5.222656 -21.367188 7.726562 -23.6875 11.863281 -23.6875 C 12.660156 -23.6875 14.074219 -23.507812 15.089844 -23.21875 Z M 15.089844 -23.21875 "/></g></g></g><g fill="#ffffff" fill-opacity="1"><g transform="translate(178.291354, 189.232267)"><g><path d="M 16.398438 -26.082031 C 16 -26.335938 15.199219 -26.445312 14.765625 -26.445312 C 14.148438 -26.445312 13.75 -26.011719 13.714844 -25.175781 C 13.675781 -24.851562 13.496094 -24.378906 12.988281 -23.6875 C 12.589844 -23.035156 12.082031 -22.058594 11.574219 -20.640625 C 11.574219 -20.53125 11.5 -20.386719 11.5 -20.277344 C 11.101562 -19.226562 10.519531 -17.632812 9.613281 -15.597656 L 8.269531 -18.574219 L 7.582031 -20.242188 L 7.617188 -20.171875 C 7.582031 -20.277344 7.507812 -20.53125 7.402344 -20.714844 L 7.402344 -20.679688 C 7.109375 -21.511719 6.855469 -21.949219 6.640625 -22.457031 C 6.238281 -23.074219 5.914062 -23.6875 5.769531 -24.160156 C 5.222656 -25.503906 4.5 -26.410156 3.882812 -26.410156 C 3.628906 -26.410156 3.335938 -26.375 3.046875 -26.121094 C 2.9375 -26.011719 2.757812 -25.976562 2.648438 -25.9375 C 2.574219 -25.9375 2.539062 -25.902344 2.503906 -25.902344 C 2.25 -25.828125 2.066406 -25.828125 1.886719 -25.539062 C 1.597656 -25.320312 1.632812 -24.921875 1.632812 -24.558594 L 1.632812 -24.195312 C 1.632812 -23.90625 1.597656 -23.6875 1.597656 -23.472656 C 1.8125 -22.058594 1.921875 -20.460938 2.03125 -18.792969 C 2.105469 -17.703125 2.105469 -16.613281 2.105469 -15.273438 L 2.105469 -10.375 C 2.105469 -9.359375 2.105469 -8.378906 2.03125 -7.507812 C 1.960938 -6.675781 1.921875 -5.40625 1.921875 -4.207031 C 1.921875 -2.9375 1.996094 -1.886719 2.105469 -0.941406 C 2.394531 -0.179688 3.046875 0.179688 3.410156 0.179688 C 3.519531 0.179688 3.664062 0.179688 3.882812 0.0742188 L 3.808594 0.109375 C 4.535156 -0.0351562 4.824219 -0.472656 4.824219 -1.125 L 4.789062 -1.269531 L 4.789062 -1.558594 C 4.679688 -1.996094 4.644531 -2.613281 4.605469 -3.519531 C 4.605469 -4.460938 4.605469 -5.1875 4.644531 -5.914062 C 4.644531 -5.984375 4.679688 -6.058594 4.679688 -6.132812 C 4.753906 -6.929688 4.789062 -7.691406 4.789062 -8.671875 L 4.789062 -9.359375 C 4.789062 -9.796875 4.753906 -10.15625 4.753906 -10.519531 L 4.753906 -15.78125 C 4.753906 -16.941406 4.714844 -18.246094 4.679688 -19.734375 L 4.789062 -19.554688 L 4.789062 -19.589844 C 5.515625 -17.449219 6.277344 -15.851562 7.402344 -13.894531 L 7.402344 -13.929688 C 7.980469 -12.550781 8.523438 -11.464844 9.539062 -11.101562 C 9.6875 -11.027344 10.085938 -11.101562 10.230469 -11.136719 C 11.574219 -12.1875 12.082031 -13.714844 12.589844 -15.382812 C 12.804688 -16.144531 13.023438 -16.761719 13.351562 -17.484375 C 13.496094 -18.03125 13.785156 -18.828125 14.003906 -19.371094 L 14.003906 -19.046875 C 14.003906 -18.648438 14.003906 -18.210938 13.96875 -17.777344 L 13.96875 -17.195312 C 13.96875 -16.976562 13.929688 -16.761719 13.929688 -16.542969 L 13.929688 -15.851562 C 13.929688 -15.597656 13.96875 -15.34375 13.96875 -15.128906 L 13.96875 -8.5625 C 14.074219 -6.894531 14.148438 -5.367188 14.222656 -3.808594 C 14.257812 -2.828125 14.292969 -1.777344 14.367188 -0.796875 C 14.65625 -0.0742188 15.636719 0.144531 16 0.144531 C 16.214844 0.144531 16.46875 0.144531 16.722656 -0.0351562 C 17.121094 -0.328125 17.269531 -0.796875 17.269531 -1.449219 C 17.269531 -1.777344 17.269531 -2.140625 17.195312 -2.46875 L 17.195312 -2.429688 C 17.050781 -3.375 16.976562 -4.753906 16.976562 -6.421875 L 16.976562 -10.992188 C 16.976562 -11.71875 16.941406 -12.734375 16.90625 -13.421875 L 16.90625 -13.929688 C 16.90625 -14.148438 16.867188 -14.402344 16.867188 -14.621094 C 16.867188 -14.765625 16.832031 -14.910156 16.832031 -15.019531 L 16.832031 -16.035156 C 16.832031 -16.722656 16.867188 -17.523438 16.941406 -18.320312 C 16.976562 -19.082031 17.015625 -19.953125 17.015625 -20.714844 C 17.015625 -22.347656 16.90625 -23.941406 16.722656 -25.539062 Z M 16.398438 -26.082031 "/></g></g></g><g fill="#ffffff" fill-opacity="1"><g transform="translate(203.355052, 189.232267)"><g><path d="M 8.886719 -26.046875 C 8.234375 -25.976562 7.835938 -25.9375 6.457031 -25.9375 L 4.679688 -25.9375 C 4.425781 -25.9375 4.246094 -25.976562 4.027344 -25.976562 C 1.960938 -25.976562 1.742188 -25.175781 1.742188 -24.449219 L 1.742188 -24.089844 C 1.742188 -23.074219 1.777344 -22.382812 1.851562 -21.765625 C 1.921875 -21.148438 1.996094 -20.277344 1.996094 -19.082031 L 1.996094 -18.394531 C 1.996094 -17.777344 1.960938 -17.230469 1.921875 -16.613281 C 1.886719 -15.78125 1.851562 -14.835938 1.851562 -13.277344 C 1.851562 -12.550781 1.851562 -11.28125 1.886719 -10.339844 C 1.921875 -9.105469 1.960938 -7.761719 1.960938 -6.601562 C 1.960938 -4.824219 1.921875 -3.335938 1.8125 -1.960938 C 1.8125 -0.179688 2.574219 0.0742188 3.519531 0.0742188 L 3.808594 0.0742188 C 5.007812 0.0351562 5.769531 0.0742188 6.277344 0.109375 L 6.746094 0.109375 C 7.183594 0.109375 7.910156 0.0742188 8.378906 0.0351562 C 8.886719 0 9.539062 -0.0351562 9.941406 0 L 11.171875 0.0351562 C 11.535156 0.0351562 12.042969 -0.542969 12.042969 -1.015625 C 12.042969 -2.394531 11.210938 -2.683594 10.011719 -2.683594 C 9.394531 -2.683594 8.816406 -2.648438 8.269531 -2.613281 C 7.835938 -2.574219 7.363281 -2.574219 6.929688 -2.574219 C 6.3125 -2.574219 5.476562 -2.539062 4.789062 -2.574219 L 4.789062 -3.664062 C 4.789062 -4.679688 4.753906 -5.042969 4.753906 -5.222656 L 4.753906 -5.367188 L 4.824219 -8.199219 L 4.824219 -8.597656 C 4.824219 -8.996094 4.824219 -9.613281 4.789062 -10.011719 C 4.789062 -10.449219 4.753906 -10.847656 4.753906 -11.210938 L 4.753906 -12.40625 C 5.515625 -12.40625 5.730469 -12.441406 6.277344 -12.441406 C 6.675781 -12.441406 7.039062 -12.441406 7.472656 -12.40625 L 8.523438 -12.40625 C 9.433594 -12.40625 9.832031 -12.804688 9.832031 -13.714844 C 9.578125 -14.621094 9.03125 -15.054688 8.308594 -15.054688 L 7.617188 -15.054688 L 6.058594 -15.089844 C 5.660156 -15.128906 5.078125 -15.128906 4.644531 -15.128906 C 4.644531 -16.652344 4.644531 -17.738281 4.679688 -19.226562 C 4.679688 -20.53125 4.714844 -21.984375 4.714844 -23.398438 C 5.621094 -23.472656 5.949219 -23.433594 6.675781 -23.433594 C 7.292969 -23.433594 7.980469 -23.433594 8.671875 -23.398438 C 9.433594 -23.363281 10.230469 -23.328125 11.027344 -23.328125 C 11.933594 -23.328125 12.335938 -23.871094 12.335938 -24.777344 C 11.972656 -25.46875 11.390625 -26.082031 10.519531 -26.082031 Z M 8.886719 -26.046875 "/></g></g></g><g fill="#ffffff" fill-opacity="1"><g transform="translate(223.30474, 189.232267)"><g><path d="M 4.753906 -29.492188 L 6.203125 -28.042969 C 6.675781 -27.535156 7.109375 -27.136719 7.691406 -27.136719 C 8.34375 -27.136719 9.6875 -28.660156 10.484375 -29.53125 L 10.449219 -29.53125 C 10.558594 -29.640625 10.773438 -29.894531 10.882812 -30.039062 C 11.28125 -30.328125 12.769531 -31.707031 12.769531 -32.648438 C 12.769531 -33.230469 12.335938 -33.664062 11.644531 -33.664062 C 10.882812 -33.664062 9.796875 -32.613281 9.214844 -31.960938 L 8.816406 -31.5625 L 8.523438 -31.378906 L 7.582031 -30.4375 L 6.929688 -31.089844 C 6.347656 -31.742188 5.769531 -32.394531 4.898438 -33.15625 L 3.953125 -33.628906 C 3.917969 -33.628906 3.917969 -33.628906 3.917969 -33.59375 C 3.882812 -33.628906 3.773438 -33.664062 3.699219 -33.664062 C 3.011719 -33.664062 2.574219 -33.195312 2.394531 -32.324219 C 3.082031 -31.125 3.917969 -30.292969 4.753906 -29.492188 Z M 12.625 -19.15625 C 12.988281 -19.699219 13.203125 -20.242188 13.203125 -20.859375 C 13.203125 -22.746094 11.210938 -25.46875 9.503906 -26.191406 C 8.523438 -26.589844 7.835938 -26.628906 7.039062 -26.628906 L 6.53125 -26.628906 C 3.191406 -26.335938 1.597656 -24.304688 1.304688 -21.511719 L 1.195312 -20.0625 C 1.089844 -18.863281 1.015625 -17.449219 1.015625 -16.179688 C 1.015625 -15.816406 1.015625 -15.308594 1.050781 -15.019531 L 1.195312 -10.230469 C 1.304688 -9.03125 1.304688 -7.871094 1.304688 -6.710938 C 1.304688 -2.613281 3.445312 0.398438 7.074219 0.398438 C 10.8125 0.398438 13.242188 -1.777344 13.242188 -4.898438 C 13.242188 -5.914062 13.203125 -7 11.609375 -7 C 10.664062 -6.894531 10.558594 -5.839844 10.484375 -4.859375 C 10.449219 -4.535156 10.375 -4.097656 10.304688 -3.882812 C 9.613281 -2.9375 8.054688 -2.429688 6.964844 -2.429688 C 5.007812 -2.429688 4.425781 -3.882812 4.136719 -6.203125 C 4.136719 -6.238281 4.097656 -6.238281 4.097656 -6.277344 L 4.097656 -6.457031 C 3.917969 -8.378906 3.84375 -10.339844 3.84375 -12.296875 C 3.84375 -13.457031 3.882812 -14.621094 3.917969 -15.78125 C 3.953125 -16.941406 3.953125 -18.101562 3.953125 -19.226562 C 3.953125 -19.769531 3.953125 -20.460938 4.027344 -21.113281 L 4.136719 -22.09375 L 4.136719 -22.019531 C 4.460938 -23.144531 6.058594 -23.871094 6.964844 -23.871094 C 9.070312 -23.871094 9.613281 -22.417969 10.195312 -21.039062 L 10.195312 -21.078125 C 10.703125 -19.589844 10.917969 -18.9375 11.933594 -18.9375 L 12.042969 -18.9375 Z M 12.625 -19.15625 "/></g></g></g><g fill="#ffffff" fill-opacity="1"><g transform="translate(244.016085, 189.232267)"><g><path d="M 8.886719 -26.046875 C 8.234375 -25.976562 7.835938 -25.9375 6.457031 -25.9375 L 4.679688 -25.9375 C 4.425781 -25.9375 4.246094 -25.976562 4.027344 -25.976562 C 1.960938 -25.976562 1.742188 -25.175781 1.742188 -24.449219 L 1.742188 -24.089844 C 1.742188 -23.074219 1.777344 -22.382812 1.851562 -21.765625 C 1.921875 -21.148438 1.996094 -20.277344 1.996094 -19.082031 L 1.996094 -18.394531 C 1.996094 -17.777344 1.960938 -17.230469 1.921875 -16.613281 C 1.886719 -15.78125 1.851562 -14.835938 1.851562 -13.277344 C 1.851562 -12.550781 1.851562 -11.28125 1.886719 -10.339844 C 1.921875 -9.105469 1.960938 -7.761719 1.960938 -6.601562 C 1.960938 -4.824219 1.921875 -3.335938 1.8125 -1.960938 C 1.8125 -0.179688 2.574219 0.0742188 3.519531 0.0742188 L 3.808594 0.0742188 C 5.007812 0.0351562 5.769531 0.0742188 6.277344 0.109375 L 6.746094 0.109375 C 7.183594 0.109375 7.910156 0.0742188 8.378906 0.0351562 C 8.886719 0 9.539062 -0.0351562 9.941406 0 L 11.171875 0.0351562 C 11.535156 0.0351562 12.042969 -0.542969 12.042969 -1.015625 C 12.042969 -2.394531 11.210938 -2.683594 10.011719 -2.683594 C 9.394531 -2.683594 8.816406 -2.648438 8.269531 -2.613281 C 7.835938 -2.574219 7.363281 -2.574219 6.929688 -2.574219 C 6.3125 -2.574219 5.476562 -2.539062 4.789062 -2.574219 L 4.789062 -3.664062 C 4.789062 -4.679688 4.753906 -5.042969 4.753906 -5.222656 L 4.753906 -5.367188 L 4.824219 -8.199219 L 4.824219 -8.597656 C 4.824219 -8.996094 4.824219 -9.613281 4.789062 -10.011719 C 4.789062 -10.449219 4.753906 -10.847656 4.753906 -11.210938 L 4.753906 -12.40625 C 5.515625 -12.40625 5.730469 -12.441406 6.277344 -12.441406 C 6.675781 -12.441406 7.039062 -12.441406 7.472656 -12.40625 L 8.523438 -12.40625 C 9.433594 -12.40625 9.832031 -12.804688 9.832031 -13.714844 C 9.578125 -14.621094 9.03125 -15.054688 8.308594 -15.054688 L 7.617188 -15.054688 L 6.058594 -15.089844 C 5.660156 -15.128906 5.078125 -15.128906 4.644531 -15.128906 C 4.644531 -16.652344 4.644531 -17.738281 4.679688 -19.226562 C 4.679688 -20.53125 4.714844 -21.984375 4.714844 -23.398438 C 5.621094 -23.472656 5.949219 -23.433594 6.675781 -23.433594 C 7.292969 -23.433594 7.980469 -23.433594 8.671875 -23.398438 C 9.433594 -23.363281 10.230469 -23.328125 11.027344 -23.328125 C 11.933594 -23.328125 12.335938 -23.871094 12.335938 -24.777344 C 11.972656 -25.46875 11.390625 -26.082031 10.519531 -26.082031 Z M 8.886719 -26.046875 "/></g></g></g><g fill="#ffffff" fill-opacity="1"><g transform="translate(263.965768, 189.232267)"><g><path d="M 16.144531 -25.394531 C 16.144531 -26.082031 15.890625 -26.519531 15.128906 -26.773438 C 13.894531 -26.773438 13.058594 -26.230469 12.371094 -25.46875 L 10.992188 -23.941406 L 9.25 -21.949219 C 7.835938 -20.316406 6.238281 -18.609375 4.824219 -17.269531 C 4.714844 -18.71875 4.789062 -19.664062 4.753906 -21.257812 C 4.753906 -21.65625 4.714844 -22.058594 4.714844 -22.457031 L 4.605469 -26.230469 C 4.460938 -26.953125 3.992188 -27.28125 3.230469 -27.28125 C 2.828125 -27.28125 1.921875 -26.917969 1.921875 -26.300781 C 2.066406 -25.105469 2.105469 -23.726562 2.105469 -22.3125 C 2.105469 -21.695312 2.105469 -21.113281 2.066406 -20.53125 C 2.066406 -19.988281 2.03125 -19.445312 2.03125 -18.902344 L 2.03125 -18.5 C 2.03125 -18.355469 2.066406 -18.246094 2.066406 -18.140625 L 2.140625 -13.929688 C 2.140625 -13.640625 2.066406 -13.167969 2.03125 -12.695312 C 1.996094 -12.226562 1.960938 -11.71875 1.960938 -11.425781 C 1.960938 -7.109375 2.140625 -5.441406 2.25 -4.316406 C 2.320312 -3.738281 2.359375 -3.300781 2.359375 -2.683594 C 2.359375 -2.25 2.359375 -1.597656 2.320312 -0.90625 C 2.722656 -0.253906 3.628906 -0.0351562 4.171875 0 C 4.824219 -0.179688 5.1875 -0.617188 5.1875 -1.160156 C 5.1875 -2.175781 5.113281 -3.046875 5.042969 -3.628906 C 5.007812 -3.992188 4.96875 -4.351562 4.96875 -4.570312 C 4.96875 -5.949219 4.933594 -6.785156 4.898438 -7.507812 C 4.859375 -8.125 4.824219 -8.597656 4.824219 -9.324219 L 4.824219 -10.011719 C 4.824219 -10.628906 4.898438 -11.210938 4.96875 -11.933594 C 5.007812 -12.480469 5.078125 -13.058594 5.113281 -13.785156 L 5.261719 -13.929688 L 5.804688 -14.4375 C 6.746094 -12.734375 7.910156 -11.136719 8.886719 -9.796875 C 9.796875 -8.488281 10.847656 -7.109375 11.535156 -5.730469 C 12.550781 -3.589844 13.53125 -1.777344 14.476562 -0.289062 C 14.511719 -0.21875 14.621094 -0.144531 14.65625 -0.109375 C 14.875 0.0742188 15.199219 0.21875 15.527344 0.21875 C 16.398438 0.21875 16.761719 0.21875 16.761719 -0.796875 C 16.761719 -2.394531 13.675781 -8.269531 11.027344 -11.574219 C 9.976562 -12.878906 8.960938 -14.4375 8.089844 -16.359375 C 8.960938 -17.269531 9.722656 -18.246094 10.558594 -19.261719 C 12.226562 -21.402344 14.074219 -23.652344 15.78125 -24.34375 C 15.925781 -24.414062 16.144531 -24.777344 16.144531 -24.996094 Z M 16.144531 -25.394531 "/></g></g></g><g fill="#ffffff" fill-opacity="1"><g transform="translate(142.963159, 226.732264)"><g><path d="M 9.613281 -23.472656 C 9.902344 -23.472656 10.15625 -23.433594 10.339844 -23.398438 C 11.355469 -23.472656 11.609375 -23.90625 11.609375 -24.742188 C 11.609375 -25.976562 10.304688 -26.265625 9.03125 -26.265625 C 8.886719 -26.265625 8.777344 -26.230469 8.632812 -26.230469 L 7.183594 -26.230469 C 6.964844 -26.230469 6.746094 -26.265625 6.53125 -26.265625 L 4.5 -26.265625 C 3.484375 -26.265625 2.574219 -26.082031 2.574219 -24.597656 C 2.574219 -23.6875 2.828125 -23.398438 3.773438 -23.398438 L 4.136719 -23.398438 C 4.714844 -23.507812 4.933594 -23.507812 5.332031 -23.507812 C 5.804688 -23.507812 6.421875 -23.472656 6.894531 -23.433594 C 6.964844 -22.273438 6.929688 -21.765625 6.929688 -20.640625 L 6.929688 -14.984375 C 6.929688 -13.929688 7 -12.878906 7.039062 -11.898438 C 7.074219 -10.957031 7.109375 -9.976562 7.109375 -9.105469 L 7.109375 -6.09375 C 7.109375 -4.0625 6.640625 -2.976562 5.296875 -2.46875 L 5.152344 -2.46875 C 4.460938 -2.683594 4.0625 -3.121094 3.738281 -3.519531 L 3.554688 -3.738281 C 3.121094 -4.136719 2.757812 -4.570312 2.25 -4.570312 C 1.742188 -4.570312 0.726562 -3.738281 0.726562 -3.335938 L 0.761719 -3.191406 C 1.558594 -1.269531 3.375 0.433594 5.261719 0.433594 C 7.980469 0.433594 9.648438 -1.742188 9.796875 -4.136719 L 9.796875 -8.851562 C 9.796875 -10.121094 9.722656 -11.464844 9.648438 -12.734375 C 9.578125 -14.003906 9.539062 -15.238281 9.539062 -16.46875 C 9.539062 -16.976562 9.503906 -17.523438 9.503906 -18.03125 C 9.503906 -18.828125 9.46875 -19.589844 9.503906 -20.316406 Z M 9.613281 -23.472656 "/></g></g></g><g fill="#ffffff" fill-opacity="1"><g transform="translate(161.607146, 226.732264)"><g><path d="M 12.734375 -8.671875 C 12.1875 -10.882812 11.863281 -12.988281 11.574219 -14.730469 C 11.246094 -16.542969 11.027344 -18.210938 10.449219 -19.84375 L 10.484375 -19.84375 L 10.085938 -21.078125 L 10.085938 -21.039062 L 9.941406 -21.550781 C 9.503906 -23.035156 8.960938 -24.742188 8.125 -25.722656 C 7.835938 -26.082031 7.328125 -26.265625 6.929688 -26.265625 C 6.3125 -26.265625 5.730469 -25.9375 5.550781 -25.429688 L 5.585938 -25.394531 C 4.644531 -23.074219 4.316406 -21.367188 3.738281 -19.082031 L 3.15625 -16.796875 L 3.15625 -16.832031 C 3.011719 -16.214844 2.828125 -15.382812 2.722656 -14.730469 C 1.996094 -10.195312 1.234375 -5.769531 0 -1.558594 L -0.0742188 -1.160156 C -0.0742188 -0.144531 0.6875 0.363281 1.523438 0.398438 C 2.902344 0.179688 3.046875 -1.160156 3.230469 -2.503906 C 3.265625 -2.828125 3.335938 -3.191406 3.410156 -3.519531 C 3.589844 -4.679688 3.84375 -5.839844 4.097656 -6.929688 L 4.644531 -9.613281 C 5.078125 -9.648438 5.078125 -9.613281 5.476562 -9.613281 L 8.671875 -9.613281 C 8.777344 -9.613281 8.925781 -9.578125 9.070312 -9.578125 L 9.648438 -9.578125 C 10.449219 -6.132812 11.136719 -3.554688 12.082031 -0.652344 L 12.441406 -0.328125 L 12.550781 -0.21875 C 12.695312 -0.0351562 12.878906 0.109375 13.3125 0.109375 C 13.675781 0.109375 14.65625 -0.253906 14.65625 -1.269531 Z M 6.675781 -12.40625 L 5.152344 -12.40625 C 5.296875 -13.167969 5.515625 -13.894531 5.660156 -14.65625 C 6.023438 -16.542969 6.421875 -18.464844 6.855469 -20.316406 L 7.074219 -21.402344 C 8.054688 -18.902344 8.597656 -15.597656 9.105469 -12.515625 C 8.308594 -12.441406 7.507812 -12.40625 6.675781 -12.40625 Z M 6.675781 -12.40625 "/></g></g></g><g fill="#ffffff" fill-opacity="1"><g transform="translate(182.100886, 226.732264)"><g><path d="M 13.167969 -2.722656 C 12.769531 -2.867188 12.515625 -2.867188 12.371094 -2.867188 C 11.753906 -2.867188 10.917969 -2.828125 10.304688 -2.792969 C 10.011719 -2.792969 9.832031 -2.757812 9.539062 -2.757812 C 8.671875 -2.722656 7.871094 -2.683594 7.109375 -2.683594 L 4.96875 -2.683594 C 4.898438 -2.683594 4.859375 -2.648438 4.824219 -2.648438 L 4.644531 -2.648438 L 4.644531 -2.902344 L 4.605469 -3.265625 L 4.605469 -4.207031 C 4.605469 -4.789062 4.605469 -5.40625 4.644531 -6.023438 L 4.644531 -8.054688 C 4.644531 -8.488281 4.644531 -9.03125 4.605469 -9.433594 C 4.605469 -9.648438 4.570312 -9.796875 4.570312 -9.941406 C 4.535156 -10.558594 4.5 -11.136719 4.5 -11.71875 C 4.5 -12.988281 4.570312 -14.148438 4.644531 -15.308594 C 4.679688 -16.433594 4.714844 -17.59375 4.714844 -18.71875 C 4.714844 -20.171875 4.679688 -22.09375 4.605469 -23.617188 L 4.605469 -23.871094 C 4.605469 -25.140625 4.605469 -26.265625 2.828125 -26.265625 C 2.25 -26.265625 1.703125 -25.976562 1.378906 -25.210938 C 1.378906 -24.632812 1.488281 -24.160156 1.667969 -23.796875 C 1.703125 -23.617188 1.777344 -23.433594 1.777344 -23.144531 L 1.777344 -22.890625 C 1.851562 -21.984375 1.921875 -21.1875 1.921875 -20.316406 L 1.921875 -18.066406 C 1.921875 -16.507812 1.851562 -15.238281 1.777344 -14.183594 C 1.742188 -13.132812 1.703125 -12.042969 1.703125 -10.703125 L 1.703125 -8.996094 C 1.703125 -7.726562 1.703125 -5.914062 1.777344 -4.898438 L 1.777344 -4.316406 C 1.777344 -2.757812 1.8125 -1.597656 1.921875 -0.6875 C 1.960938 -0.398438 2.175781 -0.144531 2.46875 -0.0742188 C 2.648438 -0.0351562 3.300781 -0.0351562 3.589844 -0.0351562 L 4.316406 -0.0351562 C 4.679688 -0.0351562 5.078125 0 5.476562 0 L 11.574219 0 C 13.203125 0 14.003906 0 14.003906 -1.304688 C 14.003906 -1.960938 13.75 -2.539062 13.132812 -2.722656 Z M 13.167969 -2.722656 "/></g></g></g><g fill="#ffffff" fill-opacity="1"><g transform="translate(201.5428, 226.732264)"><g><path d="M 16.6875 -25.574219 C 14.835938 -26.230469 13.277344 -26.628906 11.789062 -26.628906 C 3.953125 -26.628906 1.449219 -21.113281 0.941406 -13.277344 C 0.941406 -7.546875 2.867188 0.652344 11.789062 0.652344 C 12.769531 0.652344 13.566406 0.582031 14.328125 0.398438 L 16.433594 -0.507812 L 17.886719 -1.34375 L 18.609375 -1.960938 C 19.082031 -2.320312 19.515625 -2.792969 19.878906 -3.300781 C 21.550781 -5.550781 22.382812 -8.308594 22.382812 -10.992188 C 22.3125 -11.933594 22.3125 -12.878906 22.3125 -13.859375 C 22.3125 -15.238281 22.3125 -16.542969 22.128906 -17.738281 C 21.949219 -18.828125 21.441406 -20.171875 20.75 -21.949219 C 20.023438 -23.761719 18.320312 -24.957031 16.722656 -25.574219 Z M 15.089844 -23.21875 C 17.121094 -22.671875 18.101562 -20.933594 18.753906 -18.648438 L 18.753906 -18.683594 L 19.046875 -17.703125 L 19.335938 -15.851562 C 19.554688 -14.984375 19.625 -14.148438 19.625 -13.421875 C 19.625 -7.726562 18.285156 -5.839844 17.160156 -4.605469 L 16.652344 -4.207031 C 15.054688 -2.9375 14.476562 -2.394531 11.71875 -2.394531 C 7.910156 -2.394531 5.078125 -5.1875 4.425781 -8.089844 L 4.28125 -8.742188 C 4.027344 -10.011719 3.773438 -11.210938 3.773438 -12.152344 L 3.773438 -12.515625 C 3.882812 -13.277344 3.953125 -13.96875 4.027344 -14.730469 C 4.097656 -15.746094 4.171875 -16.761719 4.425781 -17.886719 C 5.222656 -21.367188 7.726562 -23.6875 11.863281 -23.6875 C 12.660156 -23.6875 14.074219 -23.507812 15.089844 -23.21875 Z M 15.089844 -23.21875 "/></g></g></g><g fill="#ffffff" fill-opacity="1"><g transform="translate(230.741225, 226.732264)"><g><path d="M 16.46875 -25.066406 C 16.359375 -25.683594 15.707031 -26.046875 14.984375 -26.046875 C 14.546875 -26.046875 14.074219 -25.757812 13.820312 -25.394531 C 13.457031 -24.125 12.949219 -22.601562 12.589844 -21.332031 L 11.066406 -16.289062 L 9.613281 -11.390625 C 9.070312 -9.433594 8.5625 -7.472656 7.945312 -5.550781 L 7.328125 -7.507812 C 6.964844 -8.308594 6.710938 -9.285156 6.492188 -10.304688 C 6.492188 -10.375 6.457031 -10.449219 6.457031 -10.519531 L 6.3125 -11.136719 C 5.949219 -12.988281 5.367188 -14.800781 4.898438 -16.324219 C 4.644531 -17.160156 4.460938 -17.847656 4.28125 -18.539062 C 3.953125 -19.769531 3.410156 -21.292969 2.9375 -22.492188 C 2.613281 -23.21875 2.359375 -23.871094 2.140625 -25.210938 C 1.667969 -25.757812 1.125 -26.046875 0.6875 -26.046875 C 0.328125 -26.046875 -0.0351562 -25.976562 -0.363281 -25.683594 L -0.253906 -25.722656 C -0.433594 -25.613281 -0.582031 -25.285156 -0.582031 -25.140625 L -0.507812 -24.523438 C -0.398438 -23.761719 -0.328125 -23.21875 -0.109375 -22.347656 C 0.398438 -20.96875 0.980469 -18.972656 1.449219 -17.523438 L 1.777344 -16.433594 C 2.105469 -15.417969 2.429688 -14.367188 2.757812 -13.496094 L 3.191406 -12.226562 L 3.15625 -12.261719 C 3.445312 -10.8125 3.953125 -9.03125 4.570312 -7.21875 C 5.007812 -6.058594 5.367188 -4.753906 5.730469 -3.589844 L 6.167969 -2.105469 L 6.640625 -0.617188 L 7.074219 -0.21875 C 7.472656 0.0351562 7.761719 0.21875 8.308594 0.21875 C 9.070312 -0.363281 9.578125 -1.089844 9.757812 -1.8125 C 10.375 -3.84375 10.992188 -5.984375 11.535156 -8.054688 C 11.828125 -8.996094 12.152344 -10.011719 12.441406 -11.066406 C 12.734375 -12.226562 13.097656 -13.386719 13.457031 -14.511719 L 14.984375 -19.410156 L 15.707031 -21.949219 L 15.851562 -22.492188 L 15.816406 -22.457031 C 16.070312 -23.144531 16.324219 -24.050781 16.46875 -24.8125 Z M 16.46875 -25.066406 "/></g></g></g><g fill="#ffffff" fill-opacity="1"><g transform="translate(252.758272, 226.732264)"><g><path d="M 4.753906 -29.492188 L 6.203125 -28.042969 C 6.675781 -27.535156 7.109375 -27.136719 7.691406 -27.136719 C 8.34375 -27.136719 9.6875 -28.660156 10.484375 -29.53125 L 10.449219 -29.53125 C 10.558594 -29.640625 10.773438 -29.894531 10.882812 -30.039062 C 11.28125 -30.328125 12.769531 -31.707031 12.769531 -32.648438 C 12.769531 -33.230469 12.335938 -33.664062 11.644531 -33.664062 C 10.882812 -33.664062 9.796875 -32.613281 9.214844 -31.960938 L 8.816406 -31.5625 L 8.523438 -31.378906 L 7.582031 -30.4375 L 6.929688 -31.089844 C 6.347656 -31.742188 5.769531 -32.394531 4.898438 -33.15625 L 3.953125 -33.628906 C 3.917969 -33.628906 3.917969 -33.628906 3.917969 -33.59375 C 3.882812 -33.628906 3.773438 -33.664062 3.699219 -33.664062 C 3.011719 -33.664062 2.574219 -33.195312 2.394531 -32.324219 C 3.082031 -31.125 3.917969 -30.292969 4.753906 -29.492188 Z M 12.625 -19.15625 C 12.988281 -19.699219 13.203125 -20.242188 13.203125 -20.859375 C 13.203125 -22.746094 11.210938 -25.46875 9.503906 -26.191406 C 8.523438 -26.589844 7.835938 -26.628906 7.039062 -26.628906 L 6.53125 -26.628906 C 3.191406 -26.335938 1.597656 -24.304688 1.304688 -21.511719 L 1.195312 -20.0625 C 1.089844 -18.863281 1.015625 -17.449219 1.015625 -16.179688 C 1.015625 -15.816406 1.015625 -15.308594 1.050781 -15.019531 L 1.195312 -10.230469 C 1.304688 -9.03125 1.304688 -7.871094 1.304688 -6.710938 C 1.304688 -2.613281 3.445312 0.398438 7.074219 0.398438 C 10.8125 0.398438 13.242188 -1.777344 13.242188 -4.898438 C 13.242188 -5.914062 13.203125 -7 11.609375 -7 C 10.664062 -6.894531 10.558594 -5.839844 10.484375 -4.859375 C 10.449219 -4.535156 10.375 -4.097656 10.304688 -3.882812 C 9.613281 -2.9375 8.054688 -2.429688 6.964844 -2.429688 C 5.007812 -2.429688 4.425781 -3.882812 4.136719 -6.203125 C 4.136719 -6.238281 4.097656 -6.238281 4.097656 -6.277344 L 4.097656 -6.457031 C 3.917969 -8.378906 3.84375 -10.339844 3.84375 -12.296875 C 3.84375 -13.457031 3.882812 -14.621094 3.917969 -15.78125 C 3.953125 -16.941406 3.953125 -18.101562 3.953125 -19.226562 C 3.953125 -19.769531 3.953125 -20.460938 4.027344 -21.113281 L 4.136719 -22.09375 L 4.136719 -22.019531 C 4.460938 -23.144531 6.058594 -23.871094 6.964844 -23.871094 C 9.070312 -23.871094 9.613281 -22.417969 10.195312 -21.039062 L 10.195312 -21.078125 C 10.703125 -19.589844 10.917969 -18.9375 11.933594 -18.9375 L 12.042969 -18.9375 Z M 12.625 -19.15625 "/></g></g></g><g fill="#ffffff" fill-opacity="1"><g transform="translate(273.469628, 226.732264)"><g><path d="M 7 -33.085938 C 7 -33.628906 6.167969 -34.210938 5.660156 -34.210938 C 3.589844 -34.210938 1.449219 -30 1.050781 -29.167969 C 0.941406 -28.949219 0.941406 -28.730469 0.941406 -28.621094 C 0.941406 -27.96875 1.34375 -27.28125 2.03125 -27.28125 C 2.285156 -27.28125 3.011719 -27.28125 3.375 -27.96875 C 3.992188 -29.128906 4.859375 -30.074219 5.585938 -30.835938 C 6.386719 -31.707031 7 -32.324219 7 -33.085938 Z M 5.042969 -25.359375 C 4.605469 -25.757812 3.882812 -26.011719 3.484375 -26.011719 C 2.394531 -26.011719 2.285156 -24.851562 2.285156 -23.871094 C 2.46875 -19.84375 2.46875 -19.589844 2.46875 -19.191406 C 2.46875 -18.648438 2.503906 -18.03125 2.539062 -17.523438 C 2.574219 -17.050781 2.574219 -16.613281 2.574219 -16.179688 L 2.574219 -4.570312 C 2.574219 -3.628906 2.539062 -2.683594 2.539062 -1.742188 C 2.539062 -0.179688 3.335938 0.21875 3.882812 0.21875 C 5.515625 0.21875 5.515625 -1.632812 5.515625 -2.828125 L 5.515625 -3.375 C 5.476562 -4.460938 5.441406 -5.839844 5.367188 -6.820312 L 5.332031 -8.054688 C 5.261719 -9.25 5.222656 -10.449219 5.222656 -11.753906 C 5.222656 -13.203125 5.261719 -14.621094 5.332031 -16 L 5.332031 -17.339844 C 5.367188 -18.03125 5.40625 -18.71875 5.40625 -19.335938 C 5.40625 -21.222656 5.40625 -23.144531 5.1875 -25.140625 Z M 5.042969 -25.359375 "/></g></g></g><g fill="#515257" fill-opacity="1"><g transform="translate(163.069413, 261.600646)"><g/></g></g><g clip-path="url(#a5b7a0f869)"><g clip-path="url(#a851f33b26)"><g clip-path="url(#408ddae245)"><g clip-path="url(#910208eaec)"><g clip-path="url(#94ee055231)"><path fill="#ffffff" d="M 93.335938 205.125 C 95.652344 211.789062 98.085938 218.398438 100.222656 223.992188 L 108.210938 220.78125 C 105.121094 213.695312 102.191406 206.363281 99.664062 199.480469 C 99.355469 199.933594 99.03125 200.378906 98.6875 200.800781 C 97.160156 202.71875 95.367188 204.191406 93.335938 205.125 Z M 81.804688 171.453125 C 82.550781 172.097656 83.257812 172.679688 83.921875 173.214844 L 84.027344 173.300781 L 84.042969 173.421875 C 84.882812 179.175781 87.984375 189.429688 91.628906 200.164062 C 92.726562 199.5625 93.75 198.664062 94.652344 197.53125 C 95.6875 196.230469 96.574219 194.648438 97.277344 192.8125 C 94.585938 184.992188 92.566406 178.121094 91.671875 173.382812 C 91.632812 173.179688 91.59375 172.980469 91.550781 172.777344 C 90.5 172.210938 89.414062 171.777344 88.316406 171.480469 C 86.394531 170.964844 84.417969 170.882812 82.5625 171.265625 C 82.308594 171.316406 82.054688 171.375 81.804688 171.453125 Z M 81.9375 166.066406 C 81.152344 165.035156 80.347656 163.9375 79.511719 162.820312 C 78.339844 161.246094 77.132812 159.621094 75.972656 158.035156 C 74.542969 156.066406 73.164062 154.175781 71.972656 152.535156 C 70.859375 150.980469 69.90625 149.628906 69.210938 148.628906 C 68.714844 147.90625 68.1875 147.242188 67.65625 146.648438 C 67.144531 146.097656 66.625 145.625 66.140625 145.273438 C 65.773438 145.003906 65.433594 144.816406 65.148438 144.730469 C 64.933594 144.660156 64.753906 144.65625 64.636719 144.714844 L 64.613281 144.730469 C 64.449219 144.835938 64.3125 145.0625 64.222656 145.421875 C 64.125 145.808594 64.097656 146.308594 64.152344 146.9375 C 64.21875 147.746094 64.449219 148.738281 64.851562 149.902344 C 65.226562 150.960938 65.769531 152.148438 66.496094 153.472656 C 66.609375 153.710938 66.730469 153.914062 66.84375 154.121094 C 66.964844 154.324219 67.089844 154.542969 67.214844 154.761719 C 68.296875 156.570312 69.503906 158.304688 70.78125 159.972656 C 72.226562 161.828125 73.753906 163.601562 75.292969 165.25 C 76.042969 166.050781 76.804688 166.820312 77.546875 167.550781 C 78.804688 166.898438 80.144531 166.441406 81.507812 166.148438 C 81.652344 166.117188 81.789062 166.097656 81.9375 166.066406 Z M 68.855469 107.539062 L 67.585938 105.964844 L 66.300781 104.351562 C 64.632812 102.261719 63.035156 100.25 61.660156 98.496094 C 60.371094 96.855469 59.257812 95.425781 58.453125 94.34375 C 57.871094 93.578125 57.269531 92.867188 56.652344 92.246094 C 56.0625 91.660156 55.492188 91.167969 54.933594 90.800781 C 54.511719 90.523438 54.128906 90.328125 53.816406 90.246094 C 53.558594 90.183594 53.355469 90.183594 53.214844 90.269531 L 53.203125 90.269531 C 53.011719 90.394531 52.867188 90.660156 52.785156 91.074219 C 52.691406 91.488281 52.683594 92.054688 52.777344 92.75 C 52.894531 93.632812 53.175781 94.714844 53.6875 95.976562 C 54.144531 97.121094 54.78125 98.402344 55.644531 99.824219 C 55.773438 100.058594 55.914062 100.285156 56.050781 100.503906 C 56.207031 100.730469 56.347656 100.960938 56.503906 101.203125 C 57.761719 103.125 59.160156 104.972656 60.648438 106.753906 C 62.3125 108.730469 64.074219 110.597656 65.828125 112.316406 C 67.914062 114.375 70.015625 116.210938 71.941406 117.792969 C 74.359375 119.765625 76.535156 121.34375 78.175781 122.414062 L 78.355469 122.527344 L 79.046875 123.609375 L 81.75 127.789062 C 82.40625 128.808594 83.101562 129.890625 83.828125 131.011719 L 83.894531 131.113281 L 83.882812 131.226562 C 83.464844 134.476562 83.160156 137.726562 82.957031 140.9375 C 82.75 144.3125 82.648438 147.675781 82.636719 150.972656 L 82.640625 152.121094 L 82.042969 151.148438 L 81.757812 150.671875 L 81.480469 150.226562 C 80.480469 148.503906 79.320312 146.503906 78.105469 144.394531 C 76.851562 142.195312 75.503906 139.816406 74.175781 137.476562 C 72.910156 135.222656 71.683594 133.023438 70.613281 131.074219 C 69.601562 129.246094 68.757812 127.671875 68.152344 126.519531 C 67.710938 125.691406 67.234375 124.898438 66.742188 124.203125 C 66.269531 123.546875 65.78125 122.976562 65.300781 122.542969 C 64.9375 122.203125 64.601562 121.957031 64.308594 121.816406 C 64.074219 121.710938 63.878906 121.679688 63.738281 121.742188 L 63.710938 121.742188 C 63.515625 121.839844 63.328125 122.074219 63.1875 122.449219 C 63.03125 122.84375 62.941406 123.382812 62.90625 124.066406 C 62.890625 124.953125 62.992188 126.046875 63.289062 127.335938 C 63.542969 128.519531 63.96875 129.859375 64.574219 131.382812 C 64.65625 131.609375 64.757812 131.84375 64.875 132.117188 C 64.976562 132.355469 65.078125 132.605469 65.195312 132.851562 C 66.101562 134.917969 67.179688 136.929688 68.335938 138.894531 C 69.628906 141.074219 71.050781 143.167969 72.476562 145.121094 C 74.136719 147.375 75.828125 149.445312 77.414062 151.253906 C 79.390625 153.496094 81.203125 155.339844 82.613281 156.664062 L 82.722656 156.757812 L 82.726562 156.894531 C 82.777344 158.589844 82.851562 160.269531 82.960938 161.914062 C 83.03125 163.261719 83.125 164.578125 83.242188 165.890625 C 85.34375 165.679688 87.511719 165.875 89.632812 166.449219 C 89.933594 166.53125 90.246094 166.613281 90.5625 166.710938 C 90.492188 166.304688 90.441406 165.898438 90.398438 165.488281 C 89.917969 161.800781 89.648438 157.921875 89.574219 153.878906 C 89.5 149.820312 89.609375 145.597656 89.886719 141.214844 L 89.890625 141.132812 L 90.246094 140.613281 L 90.347656 140.765625 L 90.285156 140.609375 L 90.527344 140.367188 L 90.613281 140.289062 C 92.964844 138.246094 100.378906 130.03125 106.644531 122.453125 C 111.261719 116.855469 115.246094 111.617188 116.050781 109.53125 C 116.253906 109.007812 116.371094 108.546875 116.390625 108.171875 C 116.40625 107.878906 116.347656 107.652344 116.222656 107.515625 L 116.203125 107.492188 C 116.015625 107.324219 115.699219 107.214844 115.234375 107.21875 C 114.753906 107.214844 114.152344 107.335938 113.429688 107.585938 C 112.5 107.917969 111.40625 108.480469 110.1875 109.320312 C 109.066406 110.078125 107.839844 111.058594 106.511719 112.316406 C 106.300781 112.507812 106.097656 112.714844 105.878906 112.925781 C 105.648438 113.152344 105.441406 113.359375 105.25 113.5625 C 103.488281 115.375 101.824219 117.316406 100.265625 119.335938 C 98.535156 121.585938 96.953125 123.917969 95.515625 126.226562 C 94.703125 127.523438 93.953125 128.800781 93.242188 130.058594 C 92.476562 131.417969 91.761719 132.746094 91.121094 134.023438 L 90.328125 135.59375 L 90.601562 132.914062 C 91.152344 127.664062 91.746094 121.84375 93.089844 116.695312 L 93.097656 116.65625 L 93.121094 116.609375 C 93.210938 116.472656 93.316406 116.320312 93.445312 116.164062 C 93.574219 116.007812 93.734375 115.863281 93.917969 115.699219 C 96.183594 113.835938 103.371094 106.285156 109.441406 99.316406 C 113.941406 94.164062 117.8125 89.328125 118.625 87.378906 C 118.820312 86.898438 118.941406 86.46875 118.964844 86.117188 C 118.980469 85.851562 118.941406 85.636719 118.828125 85.511719 L 118.824219 85.5 C 118.652344 85.328125 118.363281 85.214844 117.921875 85.207031 C 117.480469 85.195312 116.917969 85.296875 116.21875 85.515625 C 115.335938 85.800781 114.304688 86.296875 113.128906 87.0625 C 112.054688 87.746094 110.882812 88.636719 109.59375 89.792969 C 109.398438 89.96875 109.191406 90.164062 108.984375 90.355469 C 108.789062 90.535156 108.582031 90.730469 108.375 90.9375 C 106.660156 92.589844 105.046875 94.382812 103.550781 96.230469 C 101.863281 98.308594 100.3125 100.46875 98.894531 102.609375 C 98.613281 103.046875 98.324219 103.472656 98.066406 103.894531 C 97.78125 104.335938 97.511719 104.773438 97.25 105.195312 L 95.851562 107.472656 L 96.667969 104.925781 C 97.792969 101.429688 98.855469 98.105469 99.5 95.71875 C 99.574219 95.460938 99.628906 95.234375 99.671875 95.0625 C 99.726562 94.847656 99.792969 94.617188 99.839844 94.375 L 99.859375 94.304688 L 99.917969 94.238281 C 101.222656 92.777344 102.617188 91.304688 104.023438 89.816406 C 106.300781 87.421875 108.609375 84.984375 110.632812 82.457031 L 110.667969 82.410156 C 115.855469 75.917969 121.105469 69.367188 125.972656 62.957031 C 128.574219 59.511719 129.910156 57.078125 130.171875 55.65625 C 130.269531 55.148438 130.222656 54.792969 130.035156 54.625 C 129.847656 54.457031 129.503906 54.433594 128.980469 54.542969 C 127.539062 54.859375 125.113281 56.320312 121.960938 58.929688 C 121.019531 59.703125 120.085938 60.519531 119.171875 61.375 C 118.234375 62.277344 117.289062 63.207031 116.375 64.1875 L 114.355469 66.324219 L 115.703125 63.886719 C 116.722656 62.0625 118.472656 57.898438 119.757812 53.949219 C 120.746094 50.96875 121.464844 48.117188 121.414062 46.519531 C 121.40625 46.050781 121.335938 45.714844 121.234375 45.480469 C 121.15625 45.308594 121.046875 45.214844 120.949219 45.183594 C 120.816406 45.132812 120.65625 45.15625 120.457031 45.222656 C 120.117188 45.351562 119.71875 45.640625 119.277344 46.03125 C 118.75 46.515625 118.195312 47.1875 117.601562 48.082031 C 117.078125 48.910156 116.539062 49.910156 116 51.117188 C 115.90625 51.339844 115.8125 51.542969 115.75 51.703125 C 115.664062 51.882812 115.582031 52.085938 115.5 52.304688 C 114.824219 54.015625 114.261719 55.777344 113.785156 57.558594 C 113.269531 59.550781 112.851562 61.558594 112.535156 63.507812 C 112.378906 64.5 112.246094 65.457031 112.125 66.386719 C 112 67.398438 111.910156 68.378906 111.828125 69.304688 L 111.828125 69.414062 L 111.757812 69.492188 C 110.355469 71.230469 109.027344 73.011719 107.785156 74.796875 C 106.457031 76.691406 105.242188 78.582031 104.136719 80.390625 C 103.585938 81.308594 103.027344 82.257812 102.484375 83.214844 C 101.941406 84.1875 101.410156 85.15625 100.894531 86.125 L 99.429688 88.921875 L 100.300781 85.886719 C 101.96875 80.085938 103.753906 74.132812 105.550781 68.152344 C 105.546875 68.136719 105.546875 68.125 105.546875 68.125 C 109.203125 55.929688 112.902344 43.546875 115.773438 32.039062 C 115.992188 31.125 116.144531 30.316406 116.222656 29.667969 C 116.300781 29.019531 116.304688 28.523438 116.230469 28.171875 C 116.207031 28.105469 116.199219 28.050781 116.179688 28.011719 C 116.128906 28.035156 116.078125 28.054688 115.996094 28.078125 C 115.609375 28.253906 115.121094 28.597656 114.507812 29.148438 C 113.917969 29.683594 113.21875 30.414062 112.410156 31.339844 C 110.734375 33.28125 109.195312 35.546875 107.785156 38.019531 C 106.261719 40.714844 104.898438 43.664062 103.675781 46.746094 C 103.484375 47.253906 103.304688 47.75 103.121094 48.21875 C 102.925781 48.726562 102.746094 49.234375 102.578125 49.730469 L 101.832031 51.835938 L 101.945312 49.605469 L 102.011719 48.351562 C 102.164062 45.6875 102.214844 40.410156 101.972656 35.835938 C 101.808594 32.644531 101.496094 29.808594 100.988281 28.480469 C 100.820312 28.046875 100.644531 27.738281 100.46875 27.554688 C 100.339844 27.433594 100.207031 27.367188 100.097656 27.367188 C 99.960938 27.371094 99.820312 27.445312 99.660156 27.578125 C 99.375 27.808594 99.085938 28.207031 98.8125 28.730469 C 98.472656 29.371094 98.167969 30.183594 97.925781 31.242188 C 97.695312 32.1875 97.515625 33.316406 97.417969 34.628906 C 97.390625 34.839844 97.378906 35.050781 97.367188 35.273438 C 97.351562 35.484375 97.355469 35.703125 97.34375 35.925781 C 97.273438 37.761719 97.328125 39.625 97.480469 41.457031 C 97.644531 43.511719 97.914062 45.550781 98.269531 47.480469 C 98.546875 49.035156 98.871094 50.542969 99.210938 51.949219 C 99.605469 53.570312 100.023438 55.050781 100.429688 56.355469 L 100.46875 56.445312 L 100.441406 56.546875 C 99.875 58.574219 99.378906 60.605469 98.941406 62.585938 C 98.480469 64.679688 98.097656 66.726562 97.765625 68.679688 C 97.582031 69.867188 97.402344 71.09375 97.238281 72.332031 C 97.078125 73.585938 96.929688 74.839844 96.792969 76.085938 C 96.675781 77.347656 96.566406 78.59375 96.472656 79.839844 C 96.386719 81.066406 96.316406 82.28125 96.269531 83.476562 C 96.261719 83.90625 96.160156 85.222656 96.039062 87.078125 L 95.851562 89.789062 L 94.378906 93.554688 L 94.269531 90.703125 C 94.183594 87.992188 94.089844 85.125 93.832031 82.488281 C 93.5625 79.867188 93.320312 77.3125 93.097656 75.046875 C 92.910156 72.925781 92.75 71.121094 92.65625 69.789062 C 92.585938 68.847656 92.460938 67.90625 92.277344 67.046875 C 92.113281 66.25 91.890625 65.507812 91.632812 64.90625 C 91.417969 64.433594 91.203125 64.0625 90.980469 63.816406 C 90.816406 63.617188 90.636719 63.515625 90.484375 63.507812 L 90.457031 63.5 C 90.238281 63.5 89.96875 63.648438 89.679688 63.949219 C 89.375 64.25 89.066406 64.707031 88.765625 65.34375 C 88.382812 66.15625 88.027344 67.214844 87.78125 68.546875 C 87.542969 69.753906 87.390625 71.171875 87.324219 72.84375 C 87.316406 73.09375 87.3125 73.371094 87.308594 73.648438 C 87.316406 73.894531 87.3125 74.171875 87.308594 74.464844 C 87.328125 76.773438 87.503906 79.101562 87.78125 81.386719 C 88.109375 83.960938 88.570312 86.484375 89.113281 88.902344 C 89.519531 90.703125 89.972656 92.441406 90.4375 94.082031 C 90.972656 95.917969 91.53125 97.628906 92.070312 99.191406 L 92.113281 99.308594 L 92.070312 99.410156 C 91.644531 100.535156 91.21875 101.671875 90.808594 102.816406 C 90.402344 103.964844 89.984375 105.15625 89.554688 106.375 C 88.644531 109.003906 87.835938 111.683594 87.121094 114.367188 C 86.386719 117.179688 85.75 120.015625 85.207031 122.855469 L 84.789062 125.042969 L 84.558594 122.832031 C 84.121094 118.421875 83.925781 113.066406 83.738281 107.734375 C 83.582031 103.382812 83.429688 99.058594 83.128906 95.265625 C 83.050781 94.28125 82.921875 93.316406 82.722656 92.429688 C 82.539062 91.582031 82.3125 90.820312 82.039062 90.195312 C 81.824219 89.710938 81.59375 89.328125 81.351562 89.070312 C 81.175781 88.871094 80.996094 88.757812 80.816406 88.753906 L 80.800781 88.742188 C 80.566406 88.746094 80.285156 88.894531 79.984375 89.210938 C 79.671875 89.527344 79.351562 90.015625 79.039062 90.664062 C 78.644531 91.507812 78.296875 92.605469 78.027344 93.996094 C 77.800781 95.257812 77.640625 96.734375 77.597656 98.46875 C 77.589844 98.71875 77.585938 99.007812 77.585938 99.300781 C 77.578125 99.5625 77.574219 99.839844 77.574219 100.144531 C 77.601562 101.789062 77.699219 103.4375 77.863281 105.074219 C 78.027344 106.835938 78.261719 108.589844 78.5625 110.324219 L 79.054688 113.175781 L 77.699219 109.925781 C 74.152344 101.363281 70.804688 93.273438 67.480469 82.46875 C 66.914062 80.59375 66.308594 78.738281 65.664062 76.871094 C 65 74.996094 64.296875 73.125 63.511719 71.25 C 63.167969 70.425781 62.824219 69.722656 62.503906 69.171875 C 62.199219 68.644531 61.914062 68.253906 61.652344 68.027344 C 61.605469 67.992188 61.574219 67.953125 61.542969 67.945312 C 61.519531 67.972656 61.484375 68.019531 61.453125 68.082031 C 61.253906 68.4375 61.066406 68.988281 60.921875 69.757812 C 60.777344 70.523438 60.660156 71.492188 60.570312 72.667969 C 60.390625 75.128906 60.507812 77.753906 60.855469 80.460938 C 61.222656 83.414062 61.863281 86.472656 62.699219 89.542969 C 63.492188 92.480469 64.476562 95.421875 65.558594 98.277344 C 66.742188 101.386719 68.050781 104.394531 69.398438 107.1875 L 70.648438 109.746094 L 68.855469 107.539062 " fill-opacity="1" fill-rule="evenodd"/></g></g></g></g></g><g clip-path="url(#1139141899)"><g clip-path="url(#38ec391ddf)"><g clip-path="url(#b9bccd37b7)"><path fill="#ffffff" d="M 70.925781 180.558594 C 69.742188 185.074219 69.832031 190.445312 74.0625 195.097656 C 75.722656 196.921875 77.324219 198.453125 78.851562 199.699219 C 89.042969 207.957031 97.40625 202.3125 100.550781 191.195312 C 102.042969 185.933594 101.75 178.816406 97.894531 174.53125 C 89.707031 165.441406 74.816406 165.714844 70.925781 180.558594 " fill-opacity="1" fill-rule="evenodd"/></g></g></g><g clip-path="url(#b55a08d1ad)"><g clip-path="url(#ac9df3e262)"><g clip-path="url(#1356761263)"><path fill="#ffffff" d="M 120.015625 142.363281 C 116.835938 136.964844 111.007812 133.953125 103.378906 135.621094 C 98.453125 136.695312 94.800781 139.453125 92.464844 143.042969 C 92.21875 147.144531 92.128906 151.113281 92.199219 154.910156 C 92.277344 158.472656 92.488281 161.902344 92.855469 165.171875 C 94.167969 167.074219 95.871094 168.421875 98.914062 169.191406 C 101.089844 169.757812 103.707031 170.046875 106.609375 169.464844 C 118.605469 167.058594 126.652344 153.625 120.015625 142.363281 " fill-opacity="1" fill-rule="evenodd"/></g></g></g></svg>