<svg xmlns="http://www.w3.org/2000/svg" xmlns:xlink="http://www.w3.org/1999/xlink" width="500" zoomAndPan="magnify" viewBox="0 0 375 374.999991" height="500" preserveAspectRatio="xMidYMid meet" version="1.0"><defs><g/><clipPath id="92773b857e"><path d="M 54.375 114.242188 L 134.625 114.242188 L 134.625 228.992188 L 54.375 228.992188 Z M 54.375 114.242188 " clip-rule="nonzero"/></clipPath><clipPath id="bfad96671f"><path d="M 54.375 121 L 129 121 L 129 228.992188 L 54.375 228.992188 Z M 54.375 121 " clip-rule="nonzero"/></clipPath><clipPath id="c0108a04f7"><path d="M 30 115 L 62 115 L 62 195 L 30 195 Z M 30 115 " clip-rule="nonzero"/></clipPath><clipPath id="957fac43f0"><path d="M 60 114.238281 L 70.332031 191.550781 L 37.625 195.921875 L 27.292969 118.609375 Z M 60 114.238281 " clip-rule="nonzero"/></clipPath><clipPath id="9656025483"><path d="M 60 114.238281 L 70.332031 191.550781 L 37.625 195.921875 L 27.292969 118.609375 Z M 60 114.238281 " clip-rule="nonzero"/></clipPath><clipPath id="0d361b9577"><path d="M 60.003906 114.265625 L 70.332031 191.550781 L 37.605469 195.925781 L 27.277344 118.640625 Z M 60.003906 114.265625 " clip-rule="nonzero"/></clipPath><clipPath id="88e6a0c4b4"><path d="M 60.003906 114.265625 L 70.328125 191.527344 L 37.621094 195.898438 L 27.292969 118.636719 Z M 60.003906 114.265625 " clip-rule="nonzero"/></clipPath><clipPath id="a25ef146d8"><path d="M 37 172 L 50 172 L 50 187 L 37 187 Z M 37 172 " clip-rule="nonzero"/></clipPath><clipPath id="64d74f0ea8"><path d="M 60 114.238281 L 70.332031 191.550781 L 37.625 195.921875 L 27.292969 118.609375 Z M 60 114.238281 " clip-rule="nonzero"/></clipPath><clipPath id="78053399ef"><path d="M 60 114.238281 L 70.332031 191.550781 L 37.625 195.921875 L 27.292969 118.609375 Z M 60 114.238281 " clip-rule="nonzero"/></clipPath><clipPath id="795943920e"><path d="M 46 158 L 59 158 L 59 173 L 46 173 Z M 46 158 " clip-rule="nonzero"/></clipPath><clipPath id="7ca3429e30"><path d="M 60 114.238281 L 70.332031 191.550781 L 37.625 195.921875 L 27.292969 118.609375 Z M 60 114.238281 " clip-rule="nonzero"/></clipPath><clipPath id="c0549d14bc"><path d="M 60 114.238281 L 70.332031 191.550781 L 37.625 195.921875 L 27.292969 118.609375 Z M 60 114.238281 " clip-rule="nonzero"/></clipPath><clipPath id="5b2d711aa4"><path d="M 49 192 L 122 192 L 122 242 L 49 242 Z M 49 192 " clip-rule="nonzero"/></clipPath><clipPath id="c2cff9f830"><path d="M 62.824219 177.570312 L 125.289062 227.949219 L 104.101562 254.21875 L 41.636719 203.839844 Z M 62.824219 177.570312 " clip-rule="nonzero"/></clipPath><clipPath id="ed26f3b4f9"><path d="M 62.824219 177.570312 L 125.289062 227.949219 L 104.101562 254.21875 L 41.636719 203.839844 Z M 62.824219 177.570312 " clip-rule="nonzero"/></clipPath><clipPath id="ffbbef2d1a"><path d="M 68 201 L 84 201 L 84 215 L 68 215 Z M 68 201 " clip-rule="nonzero"/></clipPath><clipPath id="544fb05582"><path d="M 62.824219 177.570312 L 125.289062 227.949219 L 104.101562 254.21875 L 41.636719 203.839844 Z M 62.824219 177.570312 " clip-rule="nonzero"/></clipPath><clipPath id="d9b65bf521"><path d="M 62.824219 177.570312 L 125.289062 227.949219 L 104.101562 254.21875 L 41.636719 203.839844 Z M 62.824219 177.570312 " clip-rule="nonzero"/></clipPath><clipPath id="31e5b7bf9b"><path d="M 53 201 L 91 201 L 91 231 L 53 231 Z M 53 201 " clip-rule="nonzero"/></clipPath><clipPath id="7f2a9470dc"><path d="M 62.824219 177.570312 L 125.289062 227.949219 L 104.101562 254.21875 L 41.636719 203.839844 Z M 62.824219 177.570312 " clip-rule="nonzero"/></clipPath><clipPath id="933684ff28"><path d="M 62.824219 177.570312 L 125.289062 227.949219 L 104.101562 254.21875 L 41.636719 203.839844 Z M 62.824219 177.570312 " clip-rule="nonzero"/></clipPath></defs><rect x="-37.5" width="250" fill="#ffffff" y="-37.499999" height="249.999989" fill-opacity="0"/><rect x="-37.5" width="250" fill="#000000" y="-37.499999" height="249.999989" fill-opacity="0"/><g clip-path="url(#92773b857e)"><path fill="#000000" d="M 134.855469 151.207031 L 134.855469 265.6875 L 128.804688 265.6875 L 127.699219 264.550781 L 127.699219 154.851562 C 127.699219 154.535156 127.546875 154.230469 127.277344 154.042969 L 82.933594 123.207031 C 82.359375 122.808594 81.605469 122.808594 81.03125 123.207031 L 36.671875 154.042969 C 36.414062 154.230469 36.25 154.523438 36.25 154.851562 L 36.25 264.550781 L 35.144531 265.6875 L 29.105469 265.6875 L 29.105469 151.207031 C 29.105469 150.890625 29.257812 150.585938 29.53125 150.398438 L 81.03125 114.699219 C 81.59375 114.300781 82.359375 114.300781 82.921875 114.699219 L 134.421875 150.398438 C 134.703125 150.585938 134.855469 150.878906 134.855469 151.207031 Z M 134.855469 151.207031 " fill-opacity="0" fill-rule="nonzero"/></g><g clip-path="url(#bfad96671f)"><path fill="#ffffff" d="M 128.804688 154.359375 L 128.804688 265.6875 L 127.699219 264.550781 L 127.699219 154.851562 C 127.699219 154.535156 127.546875 154.230469 127.277344 154.042969 L 82.933594 123.207031 C 82.359375 122.808594 81.605469 122.808594 81.03125 123.207031 L 36.671875 154.042969 C 36.414062 154.230469 36.25 154.523438 36.25 154.851562 L 36.25 264.550781 L 35.144531 265.6875 L 35.144531 154.359375 C 35.144531 154.042969 35.296875 153.738281 35.570312 153.550781 L 81.03125 122.046875 C 81.59375 121.648438 82.359375 121.648438 82.921875 122.046875 L 128.382812 153.550781 C 128.652344 153.738281 128.804688 154.03125 128.804688 154.359375 Z M 128.804688 154.359375 " fill-opacity="1" fill-rule="nonzero"/></g><g fill="#ffffff" fill-opacity="1"><g transform="translate(139.322455, 183.638134)"><g><path d="M 16.804688 -9.230469 C 16.804688 -10.550781 16.847656 -11.867188 16.847656 -13.1875 C 16.847656 -14.25 16.886719 -15.398438 16.972656 -16.546875 C 17.015625 -17.1875 16.972656 -17.910156 16.972656 -18.886719 C 16.972656 -20.207031 16.929688 -21.867188 16.847656 -23.90625 C 16.675781 -27.4375 15.144531 -29.226562 12.25 -30.375 C 11.613281 -30.417969 11.019531 -30.628906 10.378906 -30.628906 C 9.742188 -30.628906 9.105469 -30.628906 8.464844 -30.585938 C 8.125 -30.585938 7.828125 -30.542969 7.53125 -30.542969 C 7.0625 -30.542969 6.082031 -30.585938 5.105469 -30.585938 C 4.125 -30.585938 3.105469 -30.542969 2.550781 -30.375 C 3.019531 -28.542969 3.019531 -26.757812 3.019531 -23.863281 C 3.019531 -22.714844 3.105469 -21.566406 3.105469 -20.25 C 3.105469 -19.78125 3.105469 -19.269531 3.0625 -18.761719 C 2.851562 -15.144531 2.722656 -12.125 2.722656 -9.570312 C 2.722656 -8.253906 2.765625 -7.1875 2.808594 -6.167969 C 2.933594 -3.957031 3.019531 -2.425781 3.019531 -1.445312 C 3.019531 -1.0625 3.019531 -0.808594 2.976562 -0.679688 C 2.976562 -0.554688 2.933594 -0.59375 2.933594 -0.46875 C 2.933594 -0.0859375 3.191406 0.128906 3.742188 0.128906 C 6.765625 0 6.765625 -0.0859375 7.148438 -0.0859375 C 7.785156 -0.0859375 8.464844 0.0859375 8.976562 0.0859375 C 11.230469 0.0859375 12.976562 -0.425781 14.292969 -1.488281 C 15.144531 -2.128906 15.78125 -2.933594 16.25 -3.828125 C 16.632812 -4.382812 16.804688 -5.148438 16.804688 -6.039062 Z M 9.871094 -28.925781 C 11.230469 -28.800781 12.464844 -28.375 13.570312 -27.609375 C 14.675781 -26.84375 14.929688 -25.863281 15.144531 -22.84375 C 15.273438 -21.824219 15.355469 -20.800781 15.355469 -19.78125 C 15.355469 -18.460938 15.3125 -17.269531 15.1875 -15.953125 C 15.058594 -15.144531 15.101562 -14.464844 15.101562 -13.65625 C 15.101562 -12.507812 15.058594 -11.402344 15.058594 -10.335938 L 15.058594 -7.273438 C 15.058594 -6.253906 14.804688 -5.273438 14.335938 -4.382812 C 13.527344 -2.976562 12.59375 -2.085938 10.761719 -1.742188 C 9.359375 -1.617188 8.421875 -1.617188 7.785156 -1.617188 C 6.679688 -1.617188 6.464844 -1.703125 6.210938 -1.703125 C 5.742188 -1.703125 5.359375 -1.660156 4.890625 -1.785156 L 4.722656 -10.167969 C 4.59375 -11.144531 4.765625 -13.1875 4.765625 -14.25 C 4.765625 -15.996094 4.847656 -17.867188 4.847656 -20.035156 L 4.847656 -22.207031 C 4.847656 -24.589844 4.808594 -26.417969 4.59375 -28.628906 C 6.167969 -28.84375 7.570312 -28.96875 8.761719 -28.96875 C 9.144531 -28.96875 9.527344 -28.925781 9.871094 -28.925781 Z M 9.871094 -28.925781 "/></g></g></g><g fill="#ffffff" fill-opacity="1"><g transform="translate(167.867423, 183.638134)"><g><path d="M 19.78125 -30.035156 C 17.867188 -30.628906 16.378906 -31.011719 14.890625 -31.183594 C 14.589844 -31.222656 14.292969 -31.222656 13.953125 -31.222656 C 12.71875 -31.222656 11.402344 -31.054688 9.953125 -30.671875 C 8.125 -30.203125 6.296875 -29.265625 5.0625 -27.695312 C 2.765625 -24.714844 1.742188 -20.589844 1.402344 -15.570312 C 1.402344 -10.464844 2.46875 -5.230469 6.382812 -1.742188 C 7.871094 -0.679688 9.65625 0.296875 12.039062 0.679688 C 12.675781 0.765625 13.316406 0.808594 13.953125 0.808594 C 15.015625 0.808594 16.039062 0.679688 17.058594 0.425781 L 19.144531 -0.425781 L 20.757812 -1.445312 C 21.824219 -2 22.671875 -2.765625 23.355469 -3.785156 C 25.394531 -6.464844 26.289062 -9.527344 26.289062 -12.71875 C 26.121094 -15.613281 26.289062 -18.460938 25.90625 -21.015625 C 25.695312 -22.332031 25.097656 -23.90625 24.289062 -25.992188 C 23.480469 -27.992188 21.609375 -29.351562 19.78125 -30.035156 Z M 18.417969 -28.757812 C 21.441406 -27.734375 22.589844 -25.738281 23.480469 -22.460938 L 23.824219 -21.269531 L 24.207031 -18.972656 C 24.460938 -17.910156 24.503906 -16.804688 24.503906 -15.78125 C 24.503906 -14.847656 24.460938 -13.953125 24.460938 -13.230469 C 24.460938 -12.292969 24.375 -11.402344 24.207031 -10.550781 C 23.738281 -8.296875 23.3125 -6.847656 22.671875 -5.957031 C 22.121094 -5.230469 21.652344 -4.636719 21.183594 -4.167969 C 18.800781 -2.253906 18.207031 -1.53125 15.230469 -1.320312 C 14.761719 -1.277344 14.335938 -1.234375 13.867188 -1.234375 C 12.890625 -1.234375 11.867188 -1.359375 10.71875 -1.574219 C 9.316406 -1.871094 8.464844 -2.511719 7.488281 -3.359375 C 5.402344 -5.273438 4.464844 -6.804688 4 -8.976562 C 3.617188 -10.890625 3.191406 -12.675781 3.191406 -14.164062 L 3.191406 -14.761719 C 3.488281 -16.929688 3.53125 -19.226562 4 -21.484375 C 4.933594 -25.820312 7.53125 -28.289062 11.910156 -29.097656 C 12.804688 -29.265625 13.398438 -29.351562 14.207031 -29.351562 C 15.613281 -29.351562 16.847656 -29.054688 18.417969 -28.757812 Z M 18.417969 -28.757812 "/></g></g></g><g fill="#ffffff" fill-opacity="1"><g transform="translate(205.60084, 183.638134)"><g><path d="M 19.3125 -30.671875 C 18.929688 -30.882812 18.164062 -31.011719 17.78125 -31.011719 C 17.484375 -31.011719 17.355469 -30.757812 17.3125 -30.203125 C 17.269531 -29.648438 16.972656 -28.96875 16.335938 -28.078125 C 15.738281 -27.226562 15.1875 -26.035156 14.632812 -24.546875 C 14.125 -23.058594 13.359375 -20.71875 11.996094 -17.824219 L 11.441406 -16.632812 C 11.402344 -16.589844 11.359375 -16.546875 11.359375 -16.503906 C 11.359375 -16.632812 11.316406 -16.589844 11.316406 -16.632812 L 8.933594 -21.78125 L 8.039062 -23.949219 C 8.039062 -24.078125 7.996094 -24.246094 7.914062 -24.375 C 7.445312 -25.777344 6.464844 -27.183594 5.828125 -28.84375 C 5.316406 -30.160156 4.722656 -30.96875 4.253906 -30.96875 C 4.125 -30.96875 4 -30.925781 3.828125 -30.800781 C 3.191406 -30.289062 2.636719 -30.542969 2.511719 -30.246094 C 2.382812 -30.074219 2.382812 -28.882812 2.296875 -28.203125 C 2.59375 -26.375 2.722656 -24.503906 2.851562 -22.503906 C 2.933594 -21.523438 2.933594 -20.417969 2.933594 -19.226562 L 2.933594 -11.058594 C 2.933594 -10.082031 2.933594 -9.230469 2.851562 -8.378906 C 2.765625 -7.273438 2.722656 -5.914062 2.722656 -4.339844 C 2.722656 -2.808594 2.808594 -1.488281 2.933594 -0.339844 C 3.0625 0.0429688 3.488281 0.210938 3.699219 0.210938 C 3.785156 0.210938 3.871094 0.171875 4 0.128906 C 4.382812 0.0429688 4.59375 -0.171875 4.59375 -0.554688 C 4.59375 -0.679688 4.550781 -0.765625 4.550781 -0.894531 C 4.425781 -1.445312 4.339844 -2.296875 4.296875 -3.488281 C 4.296875 -4.636719 4.296875 -5.574219 4.339844 -6.464844 C 4.464844 -7.613281 4.550781 -8.59375 4.550781 -9.910156 L 4.550781 -10.71875 C 4.550781 -12.378906 4.507812 -13.441406 4.507812 -14.25 L 4.507812 -18.675781 C 4.507812 -21.226562 4.425781 -24.417969 4.210938 -28.203125 C 5.019531 -26.503906 5.53125 -25.011719 6.167969 -23.695312 C 6.976562 -21.355469 7.914062 -19.355469 9.402344 -16.804688 C 10.039062 -15.230469 10.636719 -13.996094 11.613281 -13.65625 C 13.65625 -15.230469 13.996094 -18.503906 15.144531 -21.015625 C 15.824219 -23.058594 16.675781 -25.011719 17.652344 -26.84375 L 17.652344 -22.757812 C 17.652344 -21.609375 17.570312 -20.675781 17.570312 -19.652344 C 17.570312 -18.460938 17.613281 -17.355469 17.613281 -16.207031 L 17.613281 -9.828125 C 17.824219 -6.382812 17.953125 -3.316406 18.121094 -0.253906 C 18.25 0.0859375 18.972656 0.171875 19.3125 0.171875 C 19.484375 0.171875 19.609375 0.171875 19.652344 0.128906 C 19.867188 -0.0429688 19.992188 -0.382812 19.992188 -0.9375 C 19.992188 -1.234375 19.953125 -1.617188 19.867188 -2.042969 C 19.695312 -3.234375 19.609375 -4.933594 19.609375 -7.105469 L 19.609375 -12.71875 C 19.609375 -14.464844 19.527344 -15.695312 19.484375 -17.230469 C 19.484375 -17.867188 19.441406 -18.417969 19.441406 -18.972656 C 19.441406 -19.953125 19.484375 -20.929688 19.570312 -21.90625 C 19.609375 -22.886719 19.652344 -23.824219 19.652344 -24.800781 C 19.652344 -26.714844 19.527344 -28.671875 19.3125 -30.671875 Z M 19.3125 -30.671875 "/></g></g></g><g fill="#ffffff" fill-opacity="1"><g transform="translate(237.591469, 183.638134)"><g><path d="M 12.125 -30.628906 C 11.402344 -30.585938 9.828125 -30.417969 7.53125 -30.417969 C 6.765625 -30.417969 5.53125 -30.457031 4.507812 -30.457031 C 2.085938 -30.457031 2.679688 -29.265625 2.59375 -28.96875 C 2.59375 -26.289062 2.894531 -26.078125 2.894531 -22.800781 L 2.894531 -21.90625 C 2.894531 -20.078125 2.722656 -18.84375 2.722656 -15.570312 C 2.722656 -13.527344 2.851562 -10.125 2.851562 -7.316406 C 2.851562 -5.148438 2.808594 -3.277344 2.679688 -1.574219 C 2.679688 -0.128906 3.234375 0.0859375 3.914062 0.0859375 C 4.167969 0.0859375 4.382812 0.0429688 4.636719 0.0429688 L 6 0.0429688 C 6.59375 0.0429688 7.1875 0.171875 7.699219 0.128906 C 9.144531 0.128906 10.378906 0 11.484375 0 L 11.910156 0 L 12.933594 0.0429688 C 13.058594 -0.128906 13.144531 -0.253906 13.144531 -0.425781 C 13.144531 -1.402344 12.464844 -1.617188 11.527344 -1.617188 C 10.082031 -1.617188 8.890625 -1.445312 7.65625 -1.445312 C 6.636719 -1.445312 5.574219 -1.488281 4.59375 -1.574219 L 4.59375 -3.699219 C 4.59375 -5.914062 4.550781 -5.699219 4.550781 -5.957031 L 4.636719 -9.273438 L 4.636719 -9.785156 C 4.636719 -10.933594 4.550781 -11.996094 4.550781 -13.058594 C 4.550781 -13.867188 4.550781 -14.589844 4.59375 -15.355469 C 5.574219 -15.398438 6.464844 -15.441406 7.316406 -15.441406 C 7.871094 -15.441406 8.378906 -15.441406 8.890625 -15.398438 L 10.082031 -15.398438 C 10.59375 -15.441406 10.847656 -15.570312 10.847656 -15.953125 L 10.847656 -16.121094 C 10.675781 -16.632812 10.335938 -16.929688 9.828125 -16.929688 L 8.976562 -16.929688 C 8.082031 -16.929688 7.105469 -16.929688 6.125 -16.972656 L 4.425781 -17.015625 L 4.507812 -28.882812 C 6.464844 -29.011719 8.335938 -29.054688 10.167969 -29.054688 C 11.484375 -29.054688 12.761719 -28.925781 14.082031 -28.925781 C 14.589844 -28.925781 14.847656 -29.183594 14.847656 -29.609375 C 14.546875 -30.160156 14.082031 -30.542969 13.484375 -30.714844 C 13.273438 -30.628906 13.015625 -30.585938 12.71875 -30.585938 C 12.550781 -30.585938 12.335938 -30.628906 12.125 -30.628906 Z M 12.125 -30.628906 "/></g></g></g><g fill="#ffffff" fill-opacity="1"><g transform="translate(263.58409, 183.638134)"><g><path d="M 6.765625 -34.628906 C 7.488281 -33.90625 8.039062 -33.179688 8.679688 -33.136719 C 8.761719 -33.136719 9.910156 -34.117188 10.464844 -34.796875 C 11.910156 -36.710938 12.632812 -36.625 13.996094 -38.882812 C 14.082031 -38.964844 14.125 -39.09375 14.125 -39.179688 C 14.125 -39.390625 13.910156 -39.5625 13.570312 -39.5625 C 13.316406 -39.5625 12.933594 -39.433594 12.550781 -39.136719 C 10.761719 -37.050781 10.253906 -37.265625 8.550781 -35.09375 C 6.976562 -36.667969 6.210938 -37.691406 4.636719 -39.136719 L 3.785156 -39.519531 C 3.699219 -39.519531 3.617188 -39.519531 3.53125 -39.5625 C 3.234375 -39.5625 3.019531 -39.347656 2.933594 -38.964844 C 4.082031 -37.050781 5.105469 -36.285156 6.765625 -34.628906 Z M 14.546875 -23.480469 C 14.847656 -23.90625 15.015625 -24.417969 15.015625 -24.972656 C 15.015625 -27.054688 12.847656 -29.949219 10.933594 -30.800781 C 9.785156 -31.265625 8.804688 -31.183594 7.699219 -31.222656 C 4.082031 -30.925781 2.128906 -28.96875 2 -25.695312 C 1.871094 -23.523438 1.660156 -21.3125 1.660156 -19.144531 C 1.660156 -18.675781 1.660156 -18.25 1.703125 -17.824219 L 1.871094 -11.910156 C 2 -10.421875 2 -8.933594 2 -7.445312 C 2 -2.894531 4.339844 0.46875 8.335938 0.46875 C 12.378906 0.46875 15.058594 -1.828125 15.058594 -5.230469 C 15.058594 -6.039062 15.015625 -6.933594 13.996094 -6.933594 C 13.316406 -6.890625 13.441406 -4.210938 12.976562 -3.488281 C 11.996094 -2 9.785156 -1.277344 8.167969 -1.277344 C 6.464844 -1.277344 4.933594 -1.871094 4.339844 -3.699219 C 3.957031 -4.847656 3.871094 -5.871094 3.742188 -7.0625 C 3.53125 -9.316406 3.445312 -11.699219 3.445312 -14.082031 C 3.445312 -16.71875 3.53125 -19.355469 3.53125 -21.824219 C 3.574219 -22.972656 3.53125 -24.078125 3.660156 -25.355469 L 3.785156 -26.628906 C 4.210938 -28.5 6.765625 -29.566406 8.167969 -29.566406 C 12.25 -29.566406 12.421875 -26.121094 13.65625 -23.863281 C 13.824219 -23.566406 14.039062 -23.441406 14.292969 -23.441406 C 14.421875 -23.441406 14.421875 -23.480469 14.546875 -23.480469 Z M 14.546875 -23.480469 "/></g></g></g><g fill="#ffffff" fill-opacity="1"><g transform="translate(290.470036, 183.638134)"><g><path d="M 12.125 -30.628906 C 11.402344 -30.585938 9.828125 -30.417969 7.53125 -30.417969 C 6.765625 -30.417969 5.53125 -30.457031 4.507812 -30.457031 C 2.085938 -30.457031 2.679688 -29.265625 2.59375 -28.96875 C 2.59375 -26.289062 2.894531 -26.078125 2.894531 -22.800781 L 2.894531 -21.90625 C 2.894531 -20.078125 2.722656 -18.84375 2.722656 -15.570312 C 2.722656 -13.527344 2.851562 -10.125 2.851562 -7.316406 C 2.851562 -5.148438 2.808594 -3.277344 2.679688 -1.574219 C 2.679688 -0.128906 3.234375 0.0859375 3.914062 0.0859375 C 4.167969 0.0859375 4.382812 0.0429688 4.636719 0.0429688 L 6 0.0429688 C 6.59375 0.0429688 7.1875 0.171875 7.699219 0.128906 C 9.144531 0.128906 10.378906 0 11.484375 0 L 11.910156 0 L 12.933594 0.0429688 C 13.058594 -0.128906 13.144531 -0.253906 13.144531 -0.425781 C 13.144531 -1.402344 12.464844 -1.617188 11.527344 -1.617188 C 10.082031 -1.617188 8.890625 -1.445312 7.65625 -1.445312 C 6.636719 -1.445312 5.574219 -1.488281 4.59375 -1.574219 L 4.59375 -3.699219 C 4.59375 -5.914062 4.550781 -5.699219 4.550781 -5.957031 L 4.636719 -9.273438 L 4.636719 -9.785156 C 4.636719 -10.933594 4.550781 -11.996094 4.550781 -13.058594 C 4.550781 -13.867188 4.550781 -14.589844 4.59375 -15.355469 C 5.574219 -15.398438 6.464844 -15.441406 7.316406 -15.441406 C 7.871094 -15.441406 8.378906 -15.441406 8.890625 -15.398438 L 10.082031 -15.398438 C 10.59375 -15.441406 10.847656 -15.570312 10.847656 -15.953125 L 10.847656 -16.121094 C 10.675781 -16.632812 10.335938 -16.929688 9.828125 -16.929688 L 8.976562 -16.929688 C 8.082031 -16.929688 7.105469 -16.929688 6.125 -16.972656 L 4.425781 -17.015625 L 4.507812 -28.882812 C 6.464844 -29.011719 8.335938 -29.054688 10.167969 -29.054688 C 11.484375 -29.054688 12.761719 -28.925781 14.082031 -28.925781 C 14.589844 -28.925781 14.847656 -29.183594 14.847656 -29.609375 C 14.546875 -30.160156 14.082031 -30.542969 13.484375 -30.714844 C 13.273438 -30.628906 13.015625 -30.585938 12.71875 -30.585938 C 12.550781 -30.585938 12.335938 -30.628906 12.125 -30.628906 Z M 12.125 -30.628906 "/></g></g></g><g fill="#ffffff" fill-opacity="1"><g transform="translate(316.462657, 183.638134)"><g><path d="M 18.632812 -30.585938 C 18.632812 -31.054688 18.460938 -31.308594 18.078125 -31.4375 C 17.015625 -31.394531 16.207031 -30.925781 15.441406 -30.074219 L 14.589844 -29.097656 C 11.570312 -25.652344 8.210938 -21.695312 4.722656 -18.800781 L 4.722656 -18.972656 C 4.507812 -22.84375 4.464844 -27.820312 4.339844 -31.394531 C 4.210938 -31.863281 3.957031 -32.074219 3.488281 -32.074219 C 3.191406 -32.074219 2.933594 -31.988281 2.722656 -31.777344 C 2.894531 -30.289062 2.933594 -28.585938 2.933594 -26.757812 C 2.933594 -24.929688 2.851562 -23.140625 2.894531 -21.609375 L 2.976562 -16.421875 C 2.976562 -15.570312 2.765625 -13.953125 2.765625 -13.316406 C 2.765625 -5.230469 3.234375 -4.765625 3.234375 -2.46875 C 3.234375 -1.914062 3.234375 -1.320312 3.191406 -0.511719 C 3.402344 -0.171875 4.125 -0.0429688 4.507812 0 C 4.847656 -0.0859375 5.019531 -0.296875 5.019531 -0.59375 C 5.019531 -2.550781 4.765625 -3.914062 4.765625 -4.765625 C 4.765625 -7.785156 4.59375 -8.59375 4.59375 -10.675781 L 4.59375 -11.570312 C 4.59375 -13.058594 4.808594 -14.335938 4.933594 -16.589844 C 5.785156 -17.398438 6.039062 -17.738281 7.019531 -18.292969 C 9.402344 -13.316406 12.507812 -10.675781 14.546875 -6.550781 C 15.695312 -4.167969 16.847656 -2.085938 18.164062 0.0859375 C 18.164062 0.128906 18.378906 0.253906 18.675781 0.253906 C 19.183594 0.253906 19.355469 0.253906 19.355469 -0.128906 C 19.355469 -1.402344 17.695312 -4.59375 15.78125 -8.167969 C 13.316406 -12.761719 10.378906 -14.546875 8.464844 -19.609375 C 11.910156 -22.886719 15.015625 -28.585938 18.632812 -30.074219 Z M 18.632812 -30.585938 "/></g></g></g><g fill="#ffffff" fill-opacity="1"><g transform="translate(139.322455, 227.138131)"><g><path d="M 10.636719 -29.011719 C 10.847656 -29.054688 11.101562 -29.054688 11.316406 -29.054688 C 11.65625 -29.054688 12.039062 -29.011719 12.378906 -28.96875 C 12.933594 -29.011719 13.058594 -29.265625 13.058594 -29.777344 C 13.058594 -30.628906 11.867188 -30.800781 10.761719 -30.800781 C 10.167969 -30.800781 9.613281 -30.757812 9.316406 -30.757812 C 8.253906 -30.757812 7.230469 -30.800781 6.253906 -30.800781 C 5.105469 -30.800781 3.660156 -31.097656 3.660156 -29.609375 C 3.660156 -29.140625 3.785156 -28.96875 4.210938 -28.96875 L 4.550781 -28.96875 C 5.230469 -29.097656 5.574219 -29.097656 6.210938 -29.097656 C 7.0625 -29.097656 7.914062 -29.054688 8.890625 -28.925781 C 8.976562 -27.523438 9.019531 -26.121094 9.019531 -24.714844 C 9.019531 -22.417969 8.847656 -19.992188 8.847656 -17.695312 C 8.847656 -15.1875 9.230469 -12.71875 9.230469 -10.421875 L 9.230469 -6.722656 C 9.230469 -3.488281 8.933594 -2.042969 6.382812 -1.320312 L 5.742188 -1.320312 C 3.574219 -2.042969 3.148438 -3.914062 2.339844 -3.914062 C 2.042969 -3.914062 1.617188 -3.574219 1.320312 -3.277344 L 1.320312 -3.148438 C 2.210938 -1.277344 4.296875 0.554688 6.339844 0.554688 C 6.550781 0.554688 6.804688 0.554688 7.019531 0.511719 L 9.359375 -0.679688 C 10.378906 -1.660156 10.71875 -2.851562 10.847656 -4.339844 L 10.847656 -10.125 C 10.847656 -13.230469 10.378906 -16.464844 10.378906 -19.570312 C 10.378906 -22.546875 10.550781 -24.800781 10.636719 -29.011719 Z M 10.636719 -29.011719 "/></g></g></g><g fill="#ffffff" fill-opacity="1"><g transform="translate(163.783668, 227.138131)"><g><path d="M 7.273438 -30.375 C 6.125 -27.4375 5.402344 -24.972656 4.765625 -21.566406 C 4.550781 -20.460938 3.871094 -18.292969 3.742188 -17.230469 C 2.851562 -11.144531 1.957031 -6.125 0.382812 -0.808594 L 0.296875 -0.59375 C 0.296875 0.128906 0.851562 0.425781 1.359375 0.46875 C 2 0.382812 2.296875 0 2.339844 -0.679688 C 2.550781 -2.296875 2.933594 -3.785156 3.234375 -5.402344 C 3.699219 -7.488281 4.167969 -9.65625 4.507812 -11.824219 C 5.488281 -11.953125 6.464844 -11.910156 7.445312 -11.910156 L 10.292969 -11.910156 C 10.933594 -11.910156 11.527344 -11.867188 12.167969 -11.867188 C 13.144531 -7.613281 14.207031 -3.914062 15.355469 -0.296875 C 15.570312 -0.128906 15.78125 0.128906 15.996094 0.128906 C 16.207031 0.128906 16.335938 0.0859375 16.464844 -0.0429688 C 16.503906 -0.0859375 16.804688 -0.425781 16.804688 -0.554688 L 14.464844 -9.699219 C 14.039062 -11.613281 13.953125 -12.761719 13.484375 -14.378906 C 12.59375 -17.527344 12.59375 -20.503906 11.65625 -23.441406 C 10.933594 -25.695312 10.292969 -28.800781 8.890625 -30.457031 C 8.507812 -31.011719 7.445312 -30.925781 7.273438 -30.375 Z M 7.148438 -24.503906 C 7.359375 -25.820312 7.742188 -26.757812 8.296875 -27.734375 C 9.273438 -25.820312 10.039062 -23.652344 10.507812 -21.269531 C 11.019531 -18.84375 11.402344 -16.335938 11.867188 -13.910156 C 10.59375 -13.742188 9.230469 -13.65625 7.785156 -13.65625 C 6.890625 -13.65625 6 -13.613281 5.019531 -13.742188 L 5.0625 -14.464844 C 5.742188 -17.867188 6.421875 -21.226562 7.148438 -24.503906 Z M 7.148438 -24.503906 "/></g></g></g><g fill="#ffffff" fill-opacity="1"><g transform="translate(190.414382, 227.138131)"><g><path d="M 15.484375 -1.742188 C 15.273438 -1.828125 15.058594 -1.828125 14.847656 -1.828125 C 12.464844 -1.828125 10.335938 -1.617188 8.296875 -1.617188 L 5.699219 -1.617188 C 5.488281 -1.617188 5.230469 -1.574219 5.019531 -1.574219 C 4.679688 -1.574219 4.382812 -1.660156 4.382812 -2.167969 L 4.382812 -2.722656 C 4.382812 -3.277344 4.339844 -3.785156 4.339844 -4.339844 C 4.339844 -5.914062 4.425781 -7.53125 4.425781 -9.105469 C 4.425781 -10.675781 4.210938 -12.167969 4.210938 -13.65625 C 4.210938 -16.71875 4.507812 -19.527344 4.507812 -22.289062 C 4.507812 -24.289062 4.464844 -26.289062 4.339844 -28.289062 L 4.339844 -28.671875 C 4.339844 -29.820312 4.339844 -30.800781 3.019531 -30.800781 C 2.679688 -30.800781 2.296875 -30.628906 2.085938 -30.160156 C 2.085938 -29.265625 2.550781 -28.714844 2.550781 -27.863281 C 2.679688 -26.628906 2.765625 -25.480469 2.765625 -24.332031 L 2.765625 -21.523438 C 2.765625 -17.652344 2.46875 -15.824219 2.46875 -12.378906 L 2.46875 -10.292969 C 2.46875 -8.550781 2.46875 -6.464844 2.59375 -5.316406 L 2.59375 -4.464844 C 2.59375 -2.550781 2.636719 -1.234375 2.765625 -0.0859375 C 2.976562 -0.0429688 3.660156 -0.0429688 4 -0.0429688 L 4.847656 -0.0429688 C 6.847656 -0.0429688 8.761719 0 10.761719 0 L 13.527344 0 C 15.1875 0 16.039062 0.0429688 16.039062 -0.765625 C 16.039062 -1.234375 15.824219 -1.617188 15.484375 -1.742188 Z M 15.484375 -1.742188 "/></g></g></g><g fill="#ffffff" fill-opacity="1"><g transform="translate(215.811458, 227.138131)"><g><path d="M 19.78125 -30.035156 C 17.867188 -30.628906 16.378906 -31.011719 14.890625 -31.183594 C 14.589844 -31.222656 14.292969 -31.222656 13.953125 -31.222656 C 12.71875 -31.222656 11.402344 -31.054688 9.953125 -30.671875 C 8.125 -30.203125 6.296875 -29.265625 5.0625 -27.695312 C 2.765625 -24.714844 1.742188 -20.589844 1.402344 -15.570312 C 1.402344 -10.464844 2.46875 -5.230469 6.382812 -1.742188 C 7.871094 -0.679688 9.65625 0.296875 12.039062 0.679688 C 12.675781 0.765625 13.316406 0.808594 13.953125 0.808594 C 15.015625 0.808594 16.039062 0.679688 17.058594 0.425781 L 19.144531 -0.425781 L 20.757812 -1.445312 C 21.824219 -2 22.671875 -2.765625 23.355469 -3.785156 C 25.394531 -6.464844 26.289062 -9.527344 26.289062 -12.71875 C 26.121094 -15.613281 26.289062 -18.460938 25.90625 -21.015625 C 25.695312 -22.332031 25.097656 -23.90625 24.289062 -25.992188 C 23.480469 -27.992188 21.609375 -29.351562 19.78125 -30.035156 Z M 18.417969 -28.757812 C 21.441406 -27.734375 22.589844 -25.738281 23.480469 -22.460938 L 23.824219 -21.269531 L 24.207031 -18.972656 C 24.460938 -17.910156 24.503906 -16.804688 24.503906 -15.78125 C 24.503906 -14.847656 24.460938 -13.953125 24.460938 -13.230469 C 24.460938 -12.292969 24.375 -11.402344 24.207031 -10.550781 C 23.738281 -8.296875 23.3125 -6.847656 22.671875 -5.957031 C 22.121094 -5.230469 21.652344 -4.636719 21.183594 -4.167969 C 18.800781 -2.253906 18.207031 -1.53125 15.230469 -1.320312 C 14.761719 -1.277344 14.335938 -1.234375 13.867188 -1.234375 C 12.890625 -1.234375 11.867188 -1.359375 10.71875 -1.574219 C 9.316406 -1.871094 8.464844 -2.511719 7.488281 -3.359375 C 5.402344 -5.273438 4.464844 -6.804688 4 -8.976562 C 3.617188 -10.890625 3.191406 -12.675781 3.191406 -14.164062 L 3.191406 -14.761719 C 3.488281 -16.929688 3.53125 -19.226562 4 -21.484375 C 4.933594 -25.820312 7.53125 -28.289062 11.910156 -29.097656 C 12.804688 -29.265625 13.398438 -29.351562 14.207031 -29.351562 C 15.613281 -29.351562 16.847656 -29.054688 18.417969 -28.757812 Z M 18.417969 -28.757812 "/></g></g></g><g fill="#ffffff" fill-opacity="1"><g transform="translate(253.544875, 227.138131)"><g><path d="M 19.015625 -30.035156 C 18.972656 -30.375 18.546875 -30.542969 18.078125 -30.542969 C 17.78125 -30.542969 17.570312 -30.457031 17.484375 -30.332031 C 16.25 -26.289062 15.441406 -23.441406 14.082031 -19.015625 C 12.421875 -13.699219 11.101562 -8.507812 9.273438 -3.277344 C 8.636719 -4.765625 8.507812 -6.339844 7.871094 -7.914062 C 7.230469 -9.445312 6.890625 -11.058594 6.507812 -12.71875 C 5.617188 -16.761719 4.464844 -19.738281 3.957031 -21.824219 C 3.0625 -25.566406 1.742188 -27.609375 1.277344 -29.992188 C 0.976562 -30.375 0.679688 -30.542969 0.339844 -30.542969 C 0.0859375 -30.542969 -0.128906 -30.457031 -0.339844 -30.289062 C -0.171875 -29.308594 -0.0859375 -28.460938 0.425781 -26.417969 C 1.785156 -22.460938 3.148438 -17.738281 4.253906 -14.507812 C 4.722656 -12.507812 5.316406 -10.292969 5.957031 -8.421875 C 6.976562 -5.53125 7.742188 -2.933594 8.59375 -0.210938 C 9.0625 0.0859375 9.230469 0.253906 9.527344 0.253906 C 10.125 -0.171875 10.507812 -0.808594 10.71875 -1.617188 C 12.378906 -6.933594 13.65625 -12.082031 15.3125 -17.355469 C 16.378906 -20.71875 17.101562 -23.226562 18.121094 -26.585938 C 18.460938 -27.734375 18.800781 -28.714844 19.015625 -30.035156 Z M 19.015625 -30.035156 "/></g></g></g><g fill="#ffffff" fill-opacity="1"><g transform="translate(281.962224, 227.138131)"><g><path d="M 6.765625 -34.628906 C 7.488281 -33.90625 8.039062 -33.179688 8.679688 -33.136719 C 8.761719 -33.136719 9.910156 -34.117188 10.464844 -34.796875 C 11.910156 -36.710938 12.632812 -36.625 13.996094 -38.882812 C 14.082031 -38.964844 14.125 -39.09375 14.125 -39.179688 C 14.125 -39.390625 13.910156 -39.5625 13.570312 -39.5625 C 13.316406 -39.5625 12.933594 -39.433594 12.550781 -39.136719 C 10.761719 -37.050781 10.253906 -37.265625 8.550781 -35.09375 C 6.976562 -36.667969 6.210938 -37.691406 4.636719 -39.136719 L 3.785156 -39.519531 C 3.699219 -39.519531 3.617188 -39.519531 3.53125 -39.5625 C 3.234375 -39.5625 3.019531 -39.347656 2.933594 -38.964844 C 4.082031 -37.050781 5.105469 -36.285156 6.765625 -34.628906 Z M 14.546875 -23.480469 C 14.847656 -23.90625 15.015625 -24.417969 15.015625 -24.972656 C 15.015625 -27.054688 12.847656 -29.949219 10.933594 -30.800781 C 9.785156 -31.265625 8.804688 -31.183594 7.699219 -31.222656 C 4.082031 -30.925781 2.128906 -28.96875 2 -25.695312 C 1.871094 -23.523438 1.660156 -21.3125 1.660156 -19.144531 C 1.660156 -18.675781 1.660156 -18.25 1.703125 -17.824219 L 1.871094 -11.910156 C 2 -10.421875 2 -8.933594 2 -7.445312 C 2 -2.894531 4.339844 0.46875 8.335938 0.46875 C 12.378906 0.46875 15.058594 -1.828125 15.058594 -5.230469 C 15.058594 -6.039062 15.015625 -6.933594 13.996094 -6.933594 C 13.316406 -6.890625 13.441406 -4.210938 12.976562 -3.488281 C 11.996094 -2 9.785156 -1.277344 8.167969 -1.277344 C 6.464844 -1.277344 4.933594 -1.871094 4.339844 -3.699219 C 3.957031 -4.847656 3.871094 -5.871094 3.742188 -7.0625 C 3.53125 -9.316406 3.445312 -11.699219 3.445312 -14.082031 C 3.445312 -16.71875 3.53125 -19.355469 3.53125 -21.824219 C 3.574219 -22.972656 3.53125 -24.078125 3.660156 -25.355469 L 3.785156 -26.628906 C 4.210938 -28.5 6.765625 -29.566406 8.167969 -29.566406 C 12.25 -29.566406 12.421875 -26.121094 13.65625 -23.863281 C 13.824219 -23.566406 14.039062 -23.441406 14.292969 -23.441406 C 14.421875 -23.441406 14.421875 -23.480469 14.546875 -23.480469 Z M 14.546875 -23.480469 "/></g></g></g><g fill="#ffffff" fill-opacity="1"><g transform="translate(308.848171, 227.138131)"><g><path d="M 7.316406 -39.265625 C 7.316406 -39.519531 6.847656 -39.816406 6.507812 -39.816406 C 6.125 -39.816406 5.488281 -39.519531 5.148438 -39.308594 C 3.828125 -38.414062 1.574219 -33.988281 1.53125 -33.90625 C 1.359375 -33.5625 1.574219 -32.882812 1.957031 -32.882812 C 2.167969 -32.882812 2.679688 -32.882812 2.851562 -33.265625 C 4.382812 -36.203125 7.316406 -37.945312 7.316406 -39.265625 Z M 5.191406 -30.035156 C 4.890625 -30.332031 4.253906 -30.5 3.957031 -30.5 C 3.402344 -30.5 3.316406 -29.523438 3.316406 -28.714844 C 3.574219 -23.738281 3.574219 -23.398438 3.574219 -22.929688 C 3.574219 -21.566406 3.699219 -20.335938 3.699219 -19.144531 L 3.699219 -14.164062 C 3.699219 -10.039062 3.660156 -5.828125 3.660156 -1.277344 C 3.660156 -0.0429688 4.125 0.253906 4.425781 0.253906 C 5.699219 0.253906 5.617188 -1.703125 5.617188 -2.851562 C 5.53125 -6.636719 5.230469 -9.953125 5.230469 -13.699219 C 5.230469 -17.058594 5.488281 -20.460938 5.488281 -23.097656 C 5.488281 -25.3125 5.488281 -27.609375 5.191406 -30.035156 Z M 5.191406 -30.035156 "/></g></g></g><g fill="#515257" fill-opacity="1"><g transform="translate(278.392865, 273.006151)"><g/></g></g><g clip-path="url(#c0108a04f7)"><g clip-path="url(#957fac43f0)"><g clip-path="url(#9656025483)"><g clip-path="url(#0d361b9577)"><g clip-path="url(#88e6a0c4b4)"><path fill="#ffffff" d="M 46.710938 186.769531 C 47.640625 189.433594 48.621094 192.074219 49.480469 194.3125 L 52.707031 193.023438 C 51.460938 190.191406 50.285156 187.261719 49.265625 184.507812 C 49.140625 184.691406 49.011719 184.867188 48.871094 185.035156 C 48.253906 185.804688 47.53125 186.394531 46.710938 186.769531 Z M 42.070312 173.304688 C 42.371094 173.566406 42.660156 173.796875 42.925781 174.011719 L 42.96875 174.042969 L 42.976562 174.09375 C 43.3125 176.394531 44.558594 180.492188 46.023438 184.785156 C 46.46875 184.542969 46.878906 184.183594 47.246094 183.730469 C 47.664062 183.210938 48.023438 182.578125 48.304688 181.839844 C 47.222656 178.714844 46.414062 175.96875 46.054688 174.074219 C 46.039062 173.992188 46.023438 173.910156 46.003906 173.832031 C 45.582031 173.605469 45.144531 173.433594 44.699219 173.3125 C 43.925781 173.109375 43.128906 173.074219 42.378906 173.230469 C 42.277344 173.25 42.171875 173.277344 42.070312 173.304688 Z M 42.128906 171.152344 C 41.8125 170.738281 41.488281 170.300781 41.152344 169.855469 C 40.679688 169.226562 40.191406 168.578125 39.726562 167.941406 C 39.148438 167.15625 38.59375 166.398438 38.113281 165.746094 C 37.664062 165.125 37.28125 164.582031 37 164.183594 C 36.800781 163.894531 36.589844 163.628906 36.375 163.390625 C 36.167969 163.171875 35.960938 162.984375 35.761719 162.84375 C 35.617188 162.734375 35.476562 162.660156 35.363281 162.625 C 35.277344 162.597656 35.203125 162.597656 35.15625 162.621094 L 35.148438 162.628906 C 35.082031 162.667969 35.027344 162.757812 34.988281 162.902344 C 34.949219 163.058594 34.9375 163.257812 34.960938 163.507812 C 34.988281 163.832031 35.078125 164.230469 35.242188 164.695312 C 35.390625 165.117188 35.609375 165.59375 35.902344 166.121094 C 35.949219 166.214844 35.996094 166.296875 36.042969 166.382812 C 36.09375 166.460938 36.140625 166.550781 36.191406 166.636719 C 36.628906 167.359375 37.113281 168.054688 37.628906 168.71875 C 38.210938 169.460938 38.828125 170.171875 39.445312 170.828125 C 39.75 171.148438 40.058594 171.457031 40.355469 171.746094 C 40.863281 171.484375 41.40625 171.300781 41.957031 171.183594 C 42.015625 171.171875 42.070312 171.164062 42.128906 171.152344 Z M 36.878906 147.746094 L 36.367188 147.117188 L 35.847656 146.472656 C 35.175781 145.640625 34.53125 144.835938 33.976562 144.132812 C 33.457031 143.480469 33.011719 142.90625 32.6875 142.476562 C 32.453125 142.167969 32.207031 141.886719 31.960938 141.636719 C 31.722656 141.402344 31.492188 141.207031 31.265625 141.058594 C 31.097656 140.949219 30.941406 140.871094 30.816406 140.839844 C 30.710938 140.8125 30.628906 140.8125 30.574219 140.847656 L 30.566406 140.847656 C 30.492188 140.898438 30.433594 141.003906 30.398438 141.171875 C 30.363281 141.335938 30.359375 141.5625 30.394531 141.839844 C 30.441406 142.195312 30.554688 142.628906 30.761719 143.132812 C 30.945312 143.589844 31.203125 144.101562 31.550781 144.667969 C 31.601562 144.761719 31.65625 144.855469 31.714844 144.941406 C 31.777344 145.03125 31.832031 145.125 31.894531 145.222656 C 32.402344 145.988281 32.964844 146.726562 33.566406 147.4375 C 34.238281 148.226562 34.945312 148.972656 35.652344 149.660156 C 36.496094 150.484375 37.339844 151.214844 38.117188 151.847656 C 39.09375 152.636719 39.96875 153.265625 40.632812 153.691406 L 40.703125 153.738281 L 40.984375 154.171875 L 42.070312 155.839844 C 42.335938 156.25 42.617188 156.679688 42.910156 157.128906 L 42.9375 157.167969 L 42.929688 157.214844 C 42.761719 158.515625 42.636719 159.816406 42.550781 161.101562 C 42.46875 162.449219 42.425781 163.796875 42.417969 165.113281 L 42.417969 165.574219 L 42.179688 165.183594 L 42.0625 164.996094 L 41.953125 164.816406 C 41.550781 164.128906 41.082031 163.328125 40.59375 162.484375 C 40.085938 161.605469 39.542969 160.65625 39.007812 159.71875 C 38.5 158.820312 38.007812 157.941406 37.574219 157.160156 C 37.167969 156.429688 36.828125 155.800781 36.585938 155.339844 C 36.40625 155.011719 36.214844 154.691406 36.015625 154.414062 C 35.828125 154.152344 35.628906 153.925781 35.433594 153.75 C 35.289062 153.617188 35.15625 153.515625 35.035156 153.460938 C 34.941406 153.417969 34.863281 153.40625 34.804688 153.429688 L 34.792969 153.433594 C 34.714844 153.472656 34.640625 153.5625 34.582031 153.714844 C 34.519531 153.875 34.480469 154.089844 34.46875 154.363281 C 34.460938 154.714844 34.503906 155.152344 34.621094 155.667969 C 34.722656 156.140625 34.894531 156.679688 35.136719 157.289062 C 35.171875 157.378906 35.210938 157.472656 35.257812 157.582031 C 35.300781 157.675781 35.339844 157.777344 35.386719 157.875 C 35.753906 158.699219 36.1875 159.503906 36.652344 160.289062 C 37.171875 161.160156 37.746094 161.996094 38.320312 162.777344 C 38.988281 163.679688 39.671875 164.507812 40.3125 165.230469 C 41.105469 166.125 41.835938 166.863281 42.40625 167.390625 L 42.449219 167.429688 L 42.453125 167.484375 C 42.472656 168.160156 42.5 168.832031 42.542969 169.492188 C 42.570312 170.03125 42.609375 170.554688 42.65625 171.082031 C 43.503906 170.996094 44.378906 171.070312 45.234375 171.300781 C 45.355469 171.332031 45.480469 171.367188 45.609375 171.40625 C 45.582031 171.242188 45.558594 171.078125 45.542969 170.914062 C 45.351562 169.441406 45.246094 167.890625 45.21875 166.273438 C 45.1875 164.648438 45.234375 162.960938 45.347656 161.207031 L 45.351562 161.175781 L 45.496094 160.96875 L 45.535156 161.027344 L 45.511719 160.964844 L 45.609375 160.867188 L 45.644531 160.835938 C 46.59375 160.019531 49.589844 156.730469 52.121094 153.695312 C 53.988281 151.453125 55.597656 149.355469 55.925781 148.523438 C 56.007812 148.3125 56.054688 148.128906 56.0625 147.976562 C 56.070312 147.859375 56.046875 147.769531 55.996094 147.714844 L 55.988281 147.707031 C 55.910156 147.636719 55.785156 147.59375 55.597656 147.597656 C 55.402344 147.597656 55.160156 147.644531 54.867188 147.746094 C 54.492188 147.878906 54.050781 148.101562 53.558594 148.441406 C 53.105469 148.746094 52.609375 149.136719 52.074219 149.640625 C 51.988281 149.71875 51.90625 149.800781 51.816406 149.882812 C 51.722656 149.976562 51.640625 150.058594 51.5625 150.140625 C 50.851562 150.867188 50.179688 151.640625 49.550781 152.449219 C 48.851562 153.351562 48.210938 154.285156 47.628906 155.210938 C 47.300781 155.730469 46.996094 156.238281 46.710938 156.742188 C 46.398438 157.289062 46.109375 157.820312 45.851562 158.328125 L 45.53125 158.960938 L 45.644531 157.886719 C 45.867188 155.789062 46.109375 153.457031 46.65625 151.398438 L 46.65625 151.382812 L 46.667969 151.363281 C 46.703125 151.308594 46.746094 151.25 46.796875 151.1875 C 46.851562 151.125 46.914062 151.066406 46.988281 151 C 47.902344 150.253906 50.808594 147.230469 53.261719 144.441406 C 55.082031 142.375 56.644531 140.441406 56.972656 139.660156 C 57.054688 139.46875 57.101562 139.296875 57.113281 139.15625 C 57.121094 139.050781 57.101562 138.964844 57.058594 138.914062 L 57.054688 138.910156 C 56.988281 138.839844 56.871094 138.796875 56.691406 138.792969 C 56.515625 138.789062 56.285156 138.828125 56.003906 138.917969 C 55.648438 139.03125 55.230469 139.230469 54.757812 139.535156 C 54.324219 139.8125 53.847656 140.167969 53.328125 140.628906 C 53.25 140.699219 53.167969 140.777344 53.082031 140.855469 C 53.003906 140.925781 52.917969 141.003906 52.835938 141.089844 C 52.144531 141.75 51.492188 142.46875 50.886719 143.207031 C 50.203125 144.039062 49.578125 144.90625 49.003906 145.761719 C 48.890625 145.9375 48.773438 146.109375 48.667969 146.277344 C 48.554688 146.453125 48.445312 146.628906 48.339844 146.796875 L 47.773438 147.707031 L 48.101562 146.691406 C 48.558594 145.289062 48.992188 143.960938 49.25 143.007812 C 49.28125 142.902344 49.304688 142.8125 49.320312 142.742188 C 49.34375 142.65625 49.371094 142.5625 49.390625 142.46875 L 49.398438 142.4375 L 49.421875 142.414062 C 49.949219 141.828125 50.511719 141.238281 51.082031 140.640625 C 52 139.683594 52.933594 138.707031 53.75 137.695312 L 53.765625 137.675781 C 55.863281 135.078125 57.984375 132.453125 59.953125 129.890625 C 61.003906 128.507812 61.542969 127.535156 61.652344 126.964844 C 61.691406 126.761719 61.671875 126.621094 61.597656 126.554688 C 61.519531 126.484375 61.382812 126.476562 61.171875 126.523438 C 60.589844 126.648438 59.609375 127.234375 58.335938 128.277344 C 57.957031 128.589844 57.578125 128.917969 57.207031 129.257812 C 56.828125 129.621094 56.445312 129.992188 56.078125 130.382812 L 55.261719 131.242188 L 55.808594 130.265625 C 56.21875 129.535156 56.929688 127.871094 57.449219 126.289062 C 57.847656 125.09375 58.140625 123.957031 58.121094 123.316406 C 58.117188 123.128906 58.089844 122.992188 58.046875 122.898438 C 58.015625 122.832031 57.972656 122.792969 57.933594 122.78125 C 57.878906 122.761719 57.816406 122.769531 57.734375 122.796875 C 57.597656 122.847656 57.4375 122.964844 57.257812 123.121094 C 57.046875 123.316406 56.820312 123.582031 56.582031 123.941406 C 56.371094 124.273438 56.152344 124.675781 55.933594 125.15625 C 55.894531 125.246094 55.855469 125.328125 55.832031 125.394531 C 55.796875 125.464844 55.765625 125.546875 55.730469 125.632812 C 55.457031 126.316406 55.230469 127.023438 55.035156 127.734375 C 54.828125 128.53125 54.65625 129.335938 54.527344 130.117188 C 54.464844 130.511719 54.410156 130.894531 54.363281 131.265625 C 54.308594 131.671875 54.273438 132.0625 54.238281 132.433594 L 54.242188 132.476562 L 54.210938 132.511719 C 53.644531 133.207031 53.109375 133.917969 52.605469 134.632812 C 52.070312 135.390625 51.578125 136.148438 51.132812 136.871094 C 50.910156 137.238281 50.683594 137.617188 50.460938 138.003906 C 50.242188 138.390625 50.027344 138.78125 49.820312 139.167969 L 49.226562 140.285156 L 49.578125 139.070312 C 50.257812 136.75 50.980469 134.371094 51.707031 131.976562 C 51.707031 131.96875 51.707031 131.964844 51.707031 131.964844 C 53.1875 127.085938 54.6875 122.132812 55.851562 117.527344 C 55.941406 117.160156 56.003906 116.835938 56.035156 116.578125 C 56.066406 116.320312 56.066406 116.121094 56.039062 115.980469 C 56.027344 115.953125 56.023438 115.933594 56.015625 115.917969 C 55.996094 115.925781 55.976562 115.933594 55.945312 115.941406 C 55.785156 116.011719 55.589844 116.152344 55.339844 116.371094 C 55.105469 116.585938 54.820312 116.878906 54.496094 117.25 C 53.816406 118.027344 53.195312 118.933594 52.625 119.921875 C 52.007812 121 51.457031 122.179688 50.960938 123.414062 C 50.882812 123.621094 50.8125 123.816406 50.734375 124.003906 C 50.65625 124.207031 50.585938 124.410156 50.515625 124.609375 L 50.214844 125.453125 L 50.261719 124.558594 L 50.289062 124.058594 C 50.351562 122.992188 50.375 120.882812 50.277344 119.050781 C 50.214844 117.777344 50.089844 116.640625 49.886719 116.109375 C 49.816406 115.9375 49.746094 115.8125 49.675781 115.738281 C 49.625 115.691406 49.570312 115.664062 49.527344 115.664062 C 49.472656 115.667969 49.414062 115.699219 49.351562 115.75 C 49.234375 115.84375 49.117188 116.003906 49.007812 116.210938 C 48.871094 116.46875 48.746094 116.792969 48.648438 117.214844 C 48.554688 117.59375 48.480469 118.046875 48.441406 118.574219 C 48.429688 118.65625 48.425781 118.742188 48.421875 118.828125 C 48.414062 118.914062 48.414062 119 48.410156 119.089844 C 48.382812 119.824219 48.402344 120.570312 48.460938 121.304688 C 48.527344 122.125 48.636719 122.941406 48.777344 123.710938 C 48.890625 124.335938 49.019531 124.9375 49.15625 125.5 C 49.316406 126.148438 49.484375 126.738281 49.648438 127.261719 L 49.664062 127.296875 L 49.652344 127.335938 C 49.421875 128.148438 49.21875 128.960938 49.042969 129.753906 C 48.855469 130.589844 48.699219 131.410156 48.566406 132.191406 C 48.492188 132.664062 48.417969 133.15625 48.351562 133.652344 C 48.285156 134.152344 48.222656 134.65625 48.167969 135.15625 C 48.121094 135.660156 48.074219 136.15625 48.035156 136.65625 C 48.003906 137.148438 47.972656 137.632812 47.953125 138.109375 C 47.949219 138.28125 47.910156 138.808594 47.859375 139.550781 L 47.78125 140.636719 L 47.183594 142.140625 L 47.144531 141.003906 C 47.109375 139.917969 47.074219 138.769531 46.96875 137.714844 C 46.863281 136.667969 46.765625 135.648438 46.679688 134.738281 C 46.605469 133.890625 46.539062 133.167969 46.503906 132.636719 C 46.472656 132.261719 46.425781 131.886719 46.351562 131.539062 C 46.285156 131.222656 46.195312 130.925781 46.089844 130.683594 C 46.003906 130.496094 45.917969 130.347656 45.828125 130.25 C 45.761719 130.167969 45.691406 130.128906 45.628906 130.125 L 45.617188 130.121094 C 45.527344 130.125 45.421875 130.183594 45.304688 130.300781 C 45.179688 130.425781 45.054688 130.605469 44.933594 130.859375 C 44.777344 131.1875 44.636719 131.609375 44.535156 132.144531 C 44.4375 132.625 44.375 133.195312 44.347656 133.859375 C 44.347656 133.960938 44.34375 134.070312 44.34375 134.183594 C 44.34375 134.28125 44.34375 134.394531 44.339844 134.507812 C 44.347656 135.433594 44.417969 136.363281 44.527344 137.277344 C 44.660156 138.308594 44.847656 139.316406 45.0625 140.285156 C 45.226562 141.003906 45.40625 141.699219 45.59375 142.355469 C 45.808594 143.089844 46.035156 143.773438 46.25 144.398438 L 46.269531 144.445312 L 46.25 144.484375 C 46.078125 144.933594 45.90625 145.390625 45.742188 145.847656 C 45.574219 146.308594 45.40625 146.785156 45.234375 147.273438 C 44.863281 148.324219 44.535156 149.398438 44.246094 150.46875 C 43.949219 151.59375 43.691406 152.730469 43.46875 153.867188 L 43.300781 154.742188 L 43.207031 153.859375 C 43.035156 152.09375 42.957031 149.949219 42.882812 147.820312 C 42.824219 146.078125 42.761719 144.347656 42.644531 142.832031 C 42.613281 142.4375 42.5625 142.050781 42.480469 141.699219 C 42.410156 141.359375 42.316406 141.054688 42.207031 140.804688 C 42.121094 140.613281 42.027344 140.457031 41.929688 140.355469 C 41.859375 140.277344 41.785156 140.230469 41.714844 140.230469 L 41.707031 140.222656 C 41.613281 140.226562 41.5 140.285156 41.378906 140.410156 C 41.25 140.539062 41.121094 140.734375 40.996094 140.992188 C 40.835938 141.332031 40.695312 141.769531 40.585938 142.328125 C 40.492188 142.832031 40.429688 143.421875 40.410156 144.117188 C 40.40625 144.214844 40.40625 144.332031 40.40625 144.449219 C 40.402344 144.554688 40.398438 144.664062 40.398438 144.785156 C 40.410156 145.445312 40.449219 146.101562 40.515625 146.757812 C 40.582031 147.464844 40.675781 148.164062 40.792969 148.855469 L 40.992188 149.996094 L 40.445312 148.699219 C 39.019531 145.277344 37.671875 142.042969 36.335938 137.722656 C 36.109375 136.972656 35.863281 136.230469 35.605469 135.484375 C 35.335938 134.734375 35.054688 133.984375 34.738281 133.238281 C 34.601562 132.90625 34.460938 132.625 34.332031 132.40625 C 34.210938 132.195312 34.097656 132.039062 33.988281 131.949219 C 33.972656 131.933594 33.957031 131.917969 33.945312 131.914062 C 33.9375 131.925781 33.921875 131.945312 33.910156 131.96875 C 33.828125 132.113281 33.753906 132.332031 33.695312 132.640625 C 33.636719 132.945312 33.585938 133.335938 33.550781 133.804688 C 33.476562 134.789062 33.523438 135.839844 33.664062 136.921875 C 33.808594 138.101562 34.066406 139.324219 34.402344 140.554688 C 34.71875 141.726562 35.117188 142.902344 35.550781 144.046875 C 36.027344 145.289062 36.554688 146.492188 37.097656 147.609375 L 37.597656 148.628906 L 36.878906 147.746094 " fill-opacity="1" fill-rule="evenodd"/></g></g></g></g></g><g clip-path="url(#a25ef146d8)"><g clip-path="url(#64d74f0ea8)"><g clip-path="url(#78053399ef)"><path fill="#ffffff" d="M 37.675781 176.953125 C 37.199219 178.761719 37.230469 180.910156 38.9375 182.765625 C 39.605469 183.496094 40.25 184.105469 40.867188 184.605469 C 44.976562 187.902344 48.355469 185.640625 49.628906 181.195312 C 50.234375 179.085938 50.117188 176.242188 48.566406 174.53125 C 45.265625 170.898438 39.253906 171.015625 37.675781 176.953125 " fill-opacity="1" fill-rule="evenodd"/></g></g></g><g clip-path="url(#795943920e)"><g clip-path="url(#7ca3429e30)"><g clip-path="url(#c0549d14bc)"><path fill="#ffffff" d="M 57.507812 161.652344 C 56.226562 159.496094 53.878906 158.292969 50.796875 158.964844 C 48.808594 159.394531 47.332031 160.5 46.390625 161.9375 C 46.285156 163.578125 46.25 165.167969 46.273438 166.683594 C 46.304688 168.109375 46.386719 169.480469 46.535156 170.789062 C 47.0625 171.546875 47.75 172.085938 48.976562 172.394531 C 49.855469 172.621094 50.914062 172.734375 52.085938 172.5 C 56.925781 171.53125 60.183594 166.152344 57.507812 161.652344 " fill-opacity="1" fill-rule="evenodd"/></g></g></g><g clip-path="url(#5b2d711aa4)"><g clip-path="url(#c2cff9f830)"><g clip-path="url(#ed26f3b4f9)"><path fill="#ffffff" d="M 87.582031 230.460938 C 88.96875 232.292969 90.460938 234.167969 92.300781 236.25 C 92.828125 236.84375 93.347656 237.445312 93.859375 238.070312 C 94.367188 238.695312 94.867188 239.335938 95.351562 240.011719 C 95.566406 240.308594 95.738281 240.574219 95.863281 240.804688 C 95.976562 241.023438 96.054688 241.203125 96.078125 241.34375 C 96.082031 241.367188 96.082031 241.386719 96.085938 241.402344 C 96.0625 241.402344 96.039062 241.402344 96.011719 241.402344 C 95.84375 241.398438 95.613281 241.347656 95.3125 241.234375 C 95.015625 241.125 94.65625 240.964844 94.226562 240.746094 C 93.335938 240.292969 92.445312 239.699219 91.570312 239.007812 C 90.625 238.253906 89.695312 237.382812 88.808594 236.441406 C 87.957031 235.542969 87.140625 234.578125 86.378906 233.597656 C 85.773438 232.8125 85.199219 232.015625 84.667969 231.226562 C 85.53125 231.179688 86.34375 230.992188 87.078125 230.691406 C 87.25 230.621094 87.417969 230.542969 87.582031 230.460938 Z M 90.566406 227.59375 C 90.785156 227.742188 90.996094 227.894531 91.203125 228.042969 C 91.53125 228.277344 91.835938 228.53125 92.105469 228.785156 C 92.359375 229.023438 92.574219 229.269531 92.734375 229.5 C 92.855469 229.671875 92.941406 229.835938 92.980469 229.972656 C 93.011719 230.078125 93.011719 230.167969 92.976562 230.230469 L 92.972656 230.234375 C 92.921875 230.320312 92.808594 230.386719 92.636719 230.425781 C 92.457031 230.46875 92.222656 230.480469 91.925781 230.453125 C 91.546875 230.414062 91.089844 230.304688 90.550781 230.105469 C 90.117188 229.941406 89.625 229.71875 89.09375 229.425781 C 89.660156 228.914062 90.144531 228.3125 90.542969 227.632812 Z M 91.429688 221.402344 C 92.632812 221.683594 93.746094 221.953125 94.558594 222.183594 C 94.667969 222.210938 94.761719 222.238281 94.832031 222.257812 C 94.914062 222.285156 95.007812 222.3125 95.101562 222.339844 L 95.132812 222.351562 L 95.167969 222.347656 C 95.953125 222.199219 96.765625 222.015625 97.585938 221.832031 C 98.914062 221.535156 100.253906 221.234375 101.570312 221.054688 L 101.597656 221.050781 C 104.96875 220.59375 108.378906 220.128906 111.65625 219.765625 C 113.414062 219.566406 114.550781 219.609375 115.101562 219.816406 C 115.300781 219.890625 115.40625 219.980469 115.429688 220.082031 C 115.449219 220.183594 115.382812 220.316406 115.234375 220.46875 C 114.808594 220.910156 113.785156 221.460938 112.195312 222.023438 C 111.726562 222.1875 111.242188 222.34375 110.746094 222.484375 C 110.230469 222.628906 109.703125 222.761719 109.167969 222.882812 L 107.988281 223.140625 L 109.125 223.179688 C 109.984375 223.203125 111.804688 223.46875 113.457031 223.84375 C 114.707031 224.125 115.855469 224.472656 116.402344 224.824219 C 116.558594 224.925781 116.664062 225.019531 116.722656 225.109375 C 116.765625 225.171875 116.777344 225.226562 116.765625 225.273438 C 116.753906 225.328125 116.710938 225.382812 116.644531 225.433594 C 116.527344 225.527344 116.34375 225.609375 116.109375 225.679688 C 115.832031 225.765625 115.476562 225.820312 115.035156 225.835938 C 114.636719 225.851562 114.171875 225.832031 113.636719 225.765625 C 113.539062 225.753906 113.453125 225.738281 113.375 225.730469 C 113.296875 225.71875 113.210938 225.707031 113.117188 225.691406 C 112.375 225.566406 111.640625 225.394531 110.917969 225.183594 C 110.113281 224.953125 109.328125 224.675781 108.578125 224.375 C 108.199219 224.222656 107.835938 224.066406 107.488281 223.910156 C 107.109375 223.742188 106.75 223.570312 106.40625 223.402344 L 106.371094 223.382812 L 106.332031 223.386719 C 105.421875 223.515625 104.511719 223.605469 103.625 223.667969 C 102.683594 223.738281 101.761719 223.769531 100.890625 223.777344 C 100.457031 223.777344 100.011719 223.773438 99.554688 223.761719 C 99.105469 223.75 98.652344 223.734375 98.203125 223.710938 L 96.917969 223.636719 L 98.160156 223.96875 C 100.539062 224.605469 102.992188 225.230469 105.460938 225.863281 C 105.460938 225.863281 105.46875 225.863281 105.472656 225.863281 C 110.503906 227.148438 115.609375 228.449219 120.230469 229.863281 C 120.601562 229.980469 120.910156 230.09375 121.15625 230.203125 C 121.394531 230.3125 121.566406 230.417969 121.675781 230.519531 C 121.695312 230.535156 121.710938 230.550781 121.722656 230.566406 C 121.707031 230.582031 121.6875 230.597656 121.65625 230.617188 C 121.515625 230.71875 121.289062 230.820312 120.964844 230.914062 C 120.652344 231.011719 120.25 231.105469 119.75 231.191406 C 118.71875 231.375 117.597656 231.441406 116.433594 231.414062 C 115.167969 231.386719 113.84375 231.242188 112.515625 231.019531 C 112.292969 230.984375 112.082031 230.949219 111.882812 230.910156 C 111.660156 230.867188 111.445312 230.828125 111.234375 230.785156 L 110.34375 230.601562 L 111.144531 231.03125 L 111.59375 231.269531 C 112.554688 231.78125 114.402344 232.875 115.945312 233.921875 C 117.023438 234.652344 117.945312 235.359375 118.296875 235.816406 C 118.414062 235.96875 118.480469 236.09375 118.507812 236.195312 C 118.523438 236.269531 118.519531 236.324219 118.488281 236.363281 C 118.460938 236.414062 118.402344 236.449219 118.324219 236.476562 C 118.179688 236.527344 117.980469 236.542969 117.738281 236.53125 C 117.449219 236.515625 117.09375 236.453125 116.675781 236.320312 C 116.296875 236.199219 115.867188 236.023438 115.386719 235.78125 C 115.308594 235.742188 115.230469 235.703125 115.152344 235.664062 C 115.078125 235.621094 115 235.578125 114.917969 235.535156 C 114.265625 235.175781 113.628906 234.761719 113.023438 234.324219 C 112.339844 233.832031 111.691406 233.304688 111.09375 232.773438 C 110.613281 232.351562 110.15625 231.917969 109.738281 231.5 C 109.261719 231.019531 108.835938 230.5625 108.46875 230.140625 L 108.441406 230.113281 L 108.40625 230.101562 C 107.578125 229.871094 106.765625 229.621094 105.980469 229.355469 C 105.152344 229.078125 104.355469 228.785156 103.605469 228.484375 C 103.152344 228.304688 102.6875 228.109375 102.214844 227.90625 C 101.746094 227.699219 101.277344 227.484375 100.816406 227.269531 C 100.351562 227.046875 99.890625 226.824219 99.441406 226.59375 C 98.996094 226.367188 98.558594 226.132812 98.128906 225.894531 C 97.976562 225.8125 97.5 225.566406 96.828125 225.21875 L 95.84375 224.710938 L 94.214844 224.445312 L 95.1875 225.078125 C 96.113281 225.679688 97.085938 226.316406 97.949219 226.96875 C 98.808594 227.609375 99.644531 228.238281 100.386719 228.789062 C 101.082031 229.300781 101.683594 229.738281 102.121094 230.050781 C 102.4375 230.277344 102.738281 230.519531 102.996094 230.761719 C 103.238281 230.992188 103.445312 231.222656 103.601562 231.445312 C 103.722656 231.613281 103.804688 231.769531 103.84375 231.898438 C 103.871094 232 103.875 232.085938 103.84375 232.140625 L 103.835938 232.152344 C 103.789062 232.230469 103.683594 232.296875 103.515625 232.335938 C 103.347656 232.378906 103.121094 232.386719 102.835938 232.359375 C 102.46875 232.328125 102.027344 232.226562 101.507812 232.035156 C 101.039062 231.863281 100.507812 231.617188 99.914062 231.285156 C 99.824219 231.234375 99.730469 231.183594 99.628906 231.121094 C 99.539062 231.070312 99.445312 231.015625 99.34375 230.949219 C 98.542969 230.460938 97.773438 229.910156 97.039062 229.324219 C 96.210938 228.671875 95.429688 227.976562 94.703125 227.273438 C 94.164062 226.75 93.65625 226.226562 93.1875 225.71875 C 92.664062 225.144531 92.183594 224.589844 91.757812 224.066406 L 91.726562 224.03125 L 91.679688 224.019531 C 91.742188 223.128906 91.652344 222.25 91.429688 221.402344 Z M 90.367188 218.941406 C 91.929688 218.597656 93.734375 218.230469 95.445312 217.921875 C 98.207031 217.425781 100.71875 217.078125 101.570312 217.203125 C 101.78125 217.234375 101.957031 217.28125 102.085938 217.34375 C 102.183594 217.398438 102.25 217.457031 102.269531 217.527344 L 102.273438 217.53125 C 102.296875 217.625 102.269531 217.753906 102.179688 217.910156 C 102.085938 218.0625 101.933594 218.246094 101.707031 218.441406 C 101.414062 218.695312 101.023438 218.953125 100.503906 219.207031 C 100.035156 219.4375 99.472656 219.664062 98.796875 219.875 C 98.6875 219.90625 98.578125 219.941406 98.464844 219.972656 C 98.359375 220.003906 98.25 220.035156 98.132812 220.066406 C 97.191406 220.316406 96.21875 220.507812 95.25 220.648438 C 94.167969 220.800781 93.082031 220.894531 92.035156 220.941406 C 91.820312 220.953125 91.609375 220.960938 91.410156 220.964844 L 91.304688 220.96875 C 91.167969 220.523438 90.992188 220.097656 90.785156 219.679688 C 90.65625 219.429688 90.515625 219.179688 90.367188 218.941406 Z M 84.90625 217.082031 C 84.292969 217.125 83.679688 217.152344 83.082031 217.160156 C 82.460938 217.171875 81.851562 217.167969 81.261719 217.15625 C 80.886719 217.144531 80.523438 217.128906 80.160156 217.109375 C 80.375 217.015625 80.617188 216.929688 80.898438 216.855469 C 81.300781 216.75 81.742188 216.671875 82.210938 216.644531 C 82.671875 216.617188 83.167969 216.640625 83.695312 216.738281 C 84.113281 216.820312 84.519531 216.933594 84.90625 217.082031 Z M 83.589844 214.5625 C 84.644531 214.378906 85.730469 214.199219 86.785156 214.039062 C 89.730469 213.585938 92.40625 213.285156 93.308594 213.445312 C 93.53125 213.480469 93.71875 213.535156 93.851562 213.609375 C 93.957031 213.667969 94.027344 213.738281 94.046875 213.8125 L 94.050781 213.820312 C 94.070312 213.921875 94.039062 214.058594 93.9375 214.21875 C 93.835938 214.386719 93.664062 214.574219 93.421875 214.777344 C 93.105469 215.035156 92.679688 215.300781 92.121094 215.558594 C 91.621094 215.789062 91.011719 216.015625 90.289062 216.214844 C 90.179688 216.25 90.058594 216.28125 89.9375 216.3125 C 89.8125 216.34375 89.691406 216.375 89.582031 216.402344 C 89.179688 216.496094 88.773438 216.582031 88.363281 216.65625 C 87.96875 216.328125 87.542969 216.03125 87.09375 215.769531 C 86.191406 215.242188 85.183594 214.851562 84.113281 214.648438 C 83.9375 214.613281 83.761719 214.585938 83.589844 214.5625 Z M 55.140625 201.3125 C 53.074219 198.789062 51.058594 196.230469 49.457031 194.144531 L 52.371094 192.039062 C 54.320312 194.859375 56.433594 197.707031 58.46875 200.273438 C 58.238281 200.285156 58.015625 200.304688 57.796875 200.335938 C 56.804688 200.46875 55.902344 200.792969 55.140625 201.3125 Z M 64.386719 212.464844 C 64.324219 212.066406 64.273438 211.691406 64.230469 211.34375 L 64.226562 211.292969 L 64.183594 211.257812 C 62.359375 209.753906 59.453125 206.503906 56.5 202.960938 C 56.949219 202.695312 57.476562 202.527344 58.070312 202.445312 C 58.742188 202.355469 59.484375 202.378906 60.277344 202.515625 C 62.421875 205.113281 64.378906 207.265625 65.835938 208.582031 C 65.894531 208.640625 65.960938 208.695312 66.019531 208.75 C 65.996094 209.242188 65.910156 209.714844 65.777344 210.164062 C 65.542969 210.953125 65.152344 211.664062 64.617188 212.238281 C 64.542969 212.316406 64.46875 212.390625 64.386719 212.464844 Z M 66.292969 213.550781 C 66.484375 214.042969 66.691406 214.5625 66.902344 215.089844 C 67.199219 215.835938 67.511719 216.597656 67.808594 217.339844 C 68.183594 218.261719 68.546875 219.148438 68.867188 219.910156 C 69.167969 220.628906 69.433594 221.25 69.632812 221.710938 C 69.777344 222.03125 69.898438 222.359375 69.984375 222.671875 C 70.070312 222.96875 70.125 223.246094 70.140625 223.492188 C 70.15625 223.675781 70.152344 223.835938 70.121094 223.957031 C 70.097656 224.046875 70.0625 224.113281 70.011719 224.140625 L 70 224.144531 C 69.929688 224.183594 69.820312 224.183594 69.679688 224.140625 C 69.527344 224.09375 69.34375 223.996094 69.136719 223.84375 C 68.867188 223.648438 68.570312 223.363281 68.253906 222.972656 C 67.964844 222.617188 67.667969 222.179688 67.359375 221.644531 C 67.308594 221.554688 67.257812 221.46875 67.210938 221.382812 C 67.167969 221.296875 67.121094 221.207031 67.070312 221.113281 C 66.671875 220.355469 66.328125 219.5625 66.019531 218.761719 C 65.679688 217.863281 65.394531 216.953125 65.152344 216.0625 C 65.035156 215.628906 64.933594 215.203125 64.832031 214.785156 C 65.332031 214.476562 65.78125 214.105469 66.171875 213.6875 C 66.214844 213.640625 66.253906 213.597656 66.292969 213.550781 Z M 76.183594 218.953125 C 75.875 218.796875 75.566406 218.640625 75.261719 218.484375 C 74.039062 217.847656 72.851562 217.175781 71.699219 216.484375 L 71.300781 216.242188 L 71.511719 216.660156 L 71.613281 216.859375 L 71.714844 217.046875 C 72.09375 217.765625 72.542969 218.59375 73.015625 219.460938 C 73.511719 220.371094 74.050781 221.34375 74.582031 222.304688 C 75 223.050781 75.40625 223.777344 75.785156 224.449219 C 75.902344 224.984375 76.066406 225.507812 76.269531 226.011719 C 76.652344 226.941406 77.1875 227.796875 77.875 228.539062 L 77.878906 228.578125 C 77.917969 228.777344 77.933594 228.949219 77.914062 229.082031 C 77.898438 229.183594 77.871094 229.261719 77.820312 229.296875 L 77.8125 229.304688 C 77.738281 229.355469 77.617188 229.371094 77.453125 229.34375 C 77.285156 229.3125 77.074219 229.234375 76.832031 229.097656 C 76.519531 228.921875 76.164062 228.652344 75.773438 228.277344 C 75.421875 227.9375 75.042969 227.507812 74.640625 226.972656 C 74.582031 226.894531 74.519531 226.808594 74.449219 226.714844 C 74.390625 226.628906 74.328125 226.539062 74.261719 226.445312 C 73.742188 225.6875 73.265625 224.886719 72.835938 224.066406 C 72.355469 223.148438 71.929688 222.210938 71.554688 221.296875 C 71.128906 220.234375 70.769531 219.207031 70.480469 218.261719 C 70.121094 217.09375 69.871094 216.070312 69.714844 215.292969 L 69.707031 215.238281 L 69.65625 215.207031 C 69.078125 214.832031 68.511719 214.449219 67.957031 214.066406 C 67.507812 213.757812 67.066406 213.445312 66.636719 213.128906 C 67.164062 212.433594 67.558594 211.628906 67.816406 210.765625 C 67.851562 210.636719 67.886719 210.507812 67.917969 210.378906 C 68.046875 210.484375 68.179688 210.59375 68.3125 210.695312 C 69.492188 211.640625 70.785156 212.550781 72.179688 213.433594 C 73.394531 214.195312 74.6875 214.929688 76.050781 215.660156 C 77.125 216.242188 77.140625 215.878906 78.605469 215.546875 C 78.398438 215.679688 78.207031 215.824219 78.03125 215.980469 C 77.449219 216.496094 77.042969 217.109375 76.675781 217.835938 C 76.488281 218.199219 76.324219 218.574219 76.183594 218.953125 Z M 81.125 228.363281 C 81.0625 227.976562 81.003906 227.601562 80.957031 227.238281 C 80.789062 225.972656 80.707031 224.875 80.683594 224.070312 L 80.683594 223.984375 L 80.457031 223.507812 L 79.582031 221.679688 C 79.367188 221.238281 79.140625 220.757812 78.910156 220.269531 L 78.886719 220.226562 L 78.84375 220.203125 C 78.597656 220.097656 78.355469 219.988281 78.113281 219.875 C 78.234375 219.507812 78.386719 219.148438 78.566406 218.800781 C 78.824219 218.292969 79.089844 217.882812 79.441406 217.570312 C 79.492188 217.523438 79.546875 217.476562 79.605469 217.433594 L 79.699219 217.480469 C 81.644531 218.394531 83.800781 219.410156 85.878906 220.023438 L 85.898438 220.027344 L 85.917969 220.027344 C 85.984375 220.027344 86.0625 220.023438 86.144531 220.007812 C 86.222656 219.996094 86.308594 219.972656 86.402344 219.9375 C 86.738281 219.820312 87.34375 219.652344 88.125 219.460938 C 88.417969 219.832031 88.667969 220.230469 88.878906 220.648438 C 89.34375 221.570312 89.589844 222.582031 89.566406 223.617188 C 89.289062 223.558594 89.003906 223.5 88.71875 223.441406 C 87.605469 223.207031 86.5 222.929688 85.410156 222.613281 C 84.273438 222.28125 83.152344 221.910156 82.039062 221.5 L 81.191406 221.1875 L 81.914062 221.734375 C 83.351562 222.816406 85.175781 224.011719 86.992188 225.207031 C 87.601562 225.601562 88.210938 226 88.800781 226.398438 C 88.773438 226.449219 88.742188 226.5 88.710938 226.554688 C 88.316406 227.230469 87.804688 227.800781 87.195312 228.226562 C 87.011719 228.101562 86.835938 227.96875 86.65625 227.832031 C 86.078125 227.40625 85.515625 226.949219 84.980469 226.480469 L 84.09375 225.710938 L 84.933594 226.863281 C 85.390625 227.492188 85.835938 228.105469 86.289062 228.722656 L 86.28125 228.726562 C 85.3125 229.125 84.140625 229.226562 82.796875 228.945312 C 82.1875 228.816406 81.632812 228.621094 81.132812 228.367188 Z M 84.132812 231.234375 L 84.144531 231.265625 L 84.425781 232.058594 C 84.796875 233.082031 85.152344 234.066406 85.464844 234.921875 C 85.761719 235.722656 86.023438 236.414062 86.226562 236.929688 C 86.363281 237.292969 86.484375 237.660156 86.566406 238.003906 C 86.644531 238.332031 86.695312 238.644531 86.703125 238.914062 C 86.710938 239.117188 86.695312 239.296875 86.65625 239.425781 C 86.625 239.53125 86.582031 239.601562 86.519531 239.628906 L 86.511719 239.636719 C 86.429688 239.675781 86.304688 239.667969 86.148438 239.613281 C 85.980469 239.554688 85.78125 239.441406 85.5625 239.265625 C 85.273438 239.035156 84.964844 238.707031 84.632812 238.265625 C 84.335938 237.863281 84.023438 237.367188 83.710938 236.765625 C 83.664062 236.667969 83.613281 236.570312 83.5625 236.472656 C 83.515625 236.375 83.464844 236.273438 83.417969 236.171875 C 83.019531 235.324219 82.675781 234.4375 82.378906 233.542969 C 82.078125 232.644531 81.828125 231.738281 81.621094 230.847656 C 81.855469 230.917969 82.097656 230.980469 82.34375 231.027344 C 82.964844 231.160156 83.558594 231.226562 84.132812 231.234375 " fill-opacity="1" fill-rule="evenodd"/></g></g></g><g clip-path="url(#ffbbef2d1a)"><g clip-path="url(#544fb05582)"><g clip-path="url(#d9b65bf521)"><path fill="#ffffff" d="M 82.761719 205.09375 C 83.957031 207.347656 83.757812 210.035156 81.539062 212.371094 C 79.96875 214.019531 78.019531 214.710938 76.101562 214.648438 C 74.925781 214.011719 73.804688 213.355469 72.746094 212.683594 C 71.453125 211.871094 70.246094 211.027344 69.136719 210.15625 C 68.632812 209.191406 68.453125 208.253906 68.882812 206.871094 C 69.160156 205.988281 69.621094 205 70.445312 204.105469 C 73.859375 200.386719 80.265625 200.382812 82.761719 205.09375 " fill-opacity="1" fill-rule="evenodd"/></g></g></g><g clip-path="url(#31e5b7bf9b)"><g clip-path="url(#7f2a9470dc)"><g clip-path="url(#933684ff28)"><path fill="#ffffff" d="M 58.878906 214.378906 C 57.058594 213.847656 55.203125 212.683594 54.492188 210.214844 C 54.210938 209.242188 54.023438 208.355469 53.921875 207.554688 C 53.234375 202.226562 56.992188 200.472656 61.542969 201.707031 C 63.695312 202.289062 66.109375 203.890625 66.773438 206.152344 C 68.175781 210.949219 64.890625 216.132812 58.878906 214.378906 Z M 89.628906 227.09375 C 88.285156 229.378906 85.816406 230.671875 82.570312 229.988281 C 77.128906 228.84375 75.296875 222.855469 77.621094 218.316406 C 78.25 217.089844 78.964844 216.261719 80.632812 215.828125 C 81.558594 215.585938 82.671875 215.457031 83.902344 215.695312 C 89 216.671875 92.433594 222.316406 89.628906 227.09375 " fill-opacity="1" fill-rule="evenodd"/></g></g></g></svg>